<?xml version="1.0" encoding="utf-8"?>
<!-- Generator: Adobe Illustrator 16.0.0, SVG Export Plug-In . SVG Version: 6.00 Build 0)  -->
<!DOCTYPE svg PUBLIC "-//W3C//DTD SVG 1.0//EN" "http://www.w3.org/TR/2001/REC-SVG-20010904/DTD/svg10.dtd">
<svg version="1.0" id="Layer_1" xmlns="http://www.w3.org/2000/svg" xmlns:xlink="http://www.w3.org/1999/xlink" x="0px" y="0px"
	 width="100px" height="100px" viewBox="0 0 100 100" enable-background="new 0 0 100 100" xml:space="preserve">
<path d="M83.334,43.333C83.334,24.925,68.408,10,50,10c-18.409,0-33.333,14.925-33.333,33.333c0,5.225,1.233,10.15,3.376,14.548
	c-2.077,2.347-3.376,5.4-3.376,8.786c0,5.521,4.476,10,10,10H30c1.833,0,3.698,1.455,4.143,3.232l1.716,6.868
	C36.305,88.545,38.168,90,40,90h10h10c1.834,0,3.699-1.455,4.141-3.232l1.719-6.868c0.443-1.777,2.309-3.232,4.141-3.232h3.334
	c5.523,0,10-4.479,10-10c0-3.386-1.299-6.439-3.375-8.786C82.1,53.483,83.334,48.558,83.334,43.333z M55.799,17.321
	C66.26,19.651,74.428,28.138,76.27,38.77c-9.883-2.405-18.027-8.147-22.506-15.615C54.617,21.276,55.316,19.333,55.799,17.321z
	 M49.041,16.716C46.078,27.259,36.33,35.69,23.757,38.75C25.888,26.536,36.337,17.171,49.041,16.716z M73.334,70H70
	c-4.873,0-9.434,3.564-10.607,8.288l-1.264,5.045H41.872l-1.261-5.049C39.43,73.562,34.869,70,30,70h-3.333
	c-1.837,0-3.333-1.494-3.333-3.333c0-2.021,0.926-3.49,1.701-4.369l2.95-3.333l-1.95-4.004c-1.451-2.981-2.293-6.116-2.571-9.343
	c11.143-2.262,20.612-8.15,26.554-16.116c5.938,7.969,15.396,13.838,26.52,16.106c-0.277,3.229-1.117,6.367-2.572,9.353
	l-1.949,4.004l2.949,3.333c0.777,0.879,1.703,2.348,1.703,4.369C76.668,68.506,75.174,70,73.334,70z"/>
<path d="M37.292,62.917c-3.108,0-5.625-2.52-5.625-5.625s2.517-5.625,5.625-5.625h3.75c3.108,0,5.625,1.68,5.625,3.75
	C46.667,59.558,42.475,62.917,37.292,62.917z"/>
<path d="M62.709,62.917c3.109,0,5.625-2.52,5.625-5.625s-2.516-5.625-5.625-5.625h-3.75c-3.109,0-5.625,1.68-5.625,3.75
	C53.334,59.558,57.527,62.917,62.709,62.917z"/>
<polygon points="55,40 51.668,40 51.668,36.667 48.334,36.667 48.334,40 45,40 45,43.333 48.334,43.333 48.334,50 51.668,50 
	51.668,43.333 55,43.333 "/>
<path d="M53.334,68.333C53.334,69.255,51.84,70,50,70c-1.839,0-3.333-0.745-3.333-1.667C46.667,63.73,48.161,60,50,60
	C51.84,60,53.334,63.73,53.334,68.333z"/>
<circle cx="40" cy="68.333" r="2.083"/>
<circle cx="30" cy="65" r="2.083"/>
<circle cx="30" cy="50" r="2.083"/>
<circle cx="36.667" cy="46.667" r="2.083"/>
<circle cx="63.334" cy="46.667" r="2.084"/>
<circle cx="70.001" cy="65" r="2.083"/>
<circle cx="70.001" cy="50" r="2.083"/>
<circle cx="60.001" cy="68.333" r="2.083"/>
<polygon points="50,80 55,76.667 50,73.333 45,76.667 "/>
</svg>
