<?xml version="1.0" encoding="utf-8"?>
<!-- Generator: Adobe Illustrator 16.0.0, SVG Export Plug-In . SVG Version: 6.00 Build 0)  -->
<!DOCTYPE svg PUBLIC "-//W3C//DTD SVG 1.0//EN" "http://www.w3.org/TR/2001/REC-SVG-20010904/DTD/svg10.dtd">
<svg version="1.0" id="Layer_1" xmlns="http://www.w3.org/2000/svg" xmlns:xlink="http://www.w3.org/1999/xlink" x="0px" y="0px"
	 width="100px" height="100px" viewBox="0 0 100 100" enable-background="new 0 0 100 100" xml:space="preserve">
<path d="M73.333,35.872V30c0-11.042-7.457-20-16.666-20H43.334c-9.202,0-16.667,8.958-16.667,20v5.872
	c0,3.672-1.484,6.992-3.893,9.395c-3.776,3.763-6.107,8.978-6.107,14.733c0,16.574,11.94,30,26.667,30h13.333
	c14.732,0,26.666-13.426,26.666-30C83.333,50.855,79.772,42.271,73.333,35.872z M43.334,83.332c-11.028,0-20-10.469-20-23.332
	c0-3.789,1.472-7.344,4.147-10.014c3.775-3.763,5.853-8.775,5.853-14.114V30c0-7.227,4.58-13.334,10-13.334
	c5.419,0,9.999,6.107,9.999,13.334v5.872c0,5.342,2.08,10.354,5.854,14.114c2.676,2.67,4.146,6.225,4.146,10.014
	C63.333,72.863,54.362,83.332,43.334,83.332z M60.563,82.881C66.331,77.379,70.001,69.18,70.001,60
	c0-5.756-2.332-10.971-6.107-14.733c-2.408-2.402-3.893-5.723-3.893-9.395V30c0-5.131-1.621-9.792-4.268-13.334h0.934
	c5.42,0,10,6.107,10,13.334v5.872c0,1.771,0.688,3.431,1.934,4.675c5.201,5.186,8.066,12.096,8.066,19.453
	C76.667,71.309,69.733,80.758,60.563,82.881z"/>
<path d="M43.334,46.666c-6.442,0-11.667,6.715-11.667,15c0,8.287,5.225,15,11.667,15c6.448,0,11.667-6.713,11.667-15
	C55.001,53.381,49.782,46.666,43.334,46.666z M43.334,70c-2.36,0-5-3.564-5-8.334s2.64-8.334,5-8.334s5,3.564,5,8.334
	S45.694,70,43.334,70z"/>
</svg>
