<?xml version="1.0" encoding="utf-8"?>
<!-- Generator: Adobe Illustrator 16.0.0, SVG Export Plug-In . SVG Version: 6.00 Build 0)  -->
<!DOCTYPE svg PUBLIC "-//W3C//DTD SVG 1.0//EN" "http://www.w3.org/TR/2001/REC-SVG-20010904/DTD/svg10.dtd">
<svg version="1.0" id="Layer_1" xmlns="http://www.w3.org/2000/svg" xmlns:xlink="http://www.w3.org/1999/xlink" x="0px" y="0px"
	 width="100px" height="100px" viewBox="0 0 100 100" enable-background="new 0 0 100 100" xml:space="preserve">
<path d="M90,16.186L87.514,10c-20.332,8.18-54.69,8.18-75.025,0L10,16.186c1.65,0.664,3.397,1.262,5.189,1.826l5.605,23.908
	l3.284,0.58L37.33,22.252c0.438,0.039,0.87,0.092,1.31,0.127L48.333,45h3.334l9.693-22.621c0.439-0.035,0.873-0.088,1.309-0.127
	L75.922,42.5l3.285-0.58l5.605-23.908C86.602,17.447,88.35,16.85,90,16.186z M24.701,29.375l-2.207-9.414
	c2.415,0.543,4.902,1.01,7.453,1.396L24.701,29.375z M50,31.967l-3.938-9.189c2.624,0.07,5.255,0.07,7.878,0L50,31.967z
	 M75.301,29.375l-5.248-8.018c2.553-0.387,5.039-0.854,7.455-1.396L75.301,29.375z"/>
<path d="M90,61.667c-29.336,0-56.922-4.564-77.51-12.853L10,55c1.098,0.442,2.284,0.823,3.415,1.243l3.538,24.564l3.222,0.859
	l15.001-19.063c1.078,0.24,2.141,0.491,3.232,0.716l7.855,23.89l3.32,0.29l11.12-20.749c0.926,0.098,1.855,0.183,2.783,0.273
	L73.334,90h3.334l9.316-21.741c1.34,0.016,2.676,0.074,4.016,0.074V61.667z M21.937,68.643l-1.434-9.951
	c2.462,0.774,4.949,1.53,7.527,2.214L21.937,68.643z M49.056,74.368l-3.171-9.651c2.539,0.433,5.125,0.804,7.722,1.159
	L49.056,74.368z M75,76.963l-3.99-9.307c2.592,0.176,5.18,0.349,7.787,0.452L75,76.963z"/>
</svg>
