<?xml version="1.0" encoding="utf-8"?>
<!-- Generator: Adobe Illustrator 16.0.0, SVG Export Plug-In . SVG Version: 6.00 Build 0)  -->
<!DOCTYPE svg PUBLIC "-//W3C//DTD SVG 1.0//EN" "http://www.w3.org/TR/2001/REC-SVG-20010904/DTD/svg10.dtd">
<svg version="1.0" id="Layer_1" xmlns="http://www.w3.org/2000/svg" xmlns:xlink="http://www.w3.org/1999/xlink" x="0px" y="0px"
	 width="100px" height="100px" viewBox="0 0 100 100" enable-background="new 0 0 100 100" xml:space="preserve">
<path d="M90,70l-8.77-46.781c-0.677-3.604-4.017-7.666-7.422-9.025L63.333,10c-7.366,6.666-19.301,6.666-26.666,0L26.19,14.193
	c-3.406,1.359-6.744,5.422-7.42,9.025L10,70c0.966,0.781,2.081,1.426,3.259,2.002l-1.592,7.165h6.666l-1.293-5.82
	c1.563,0.384,3.191,0.654,4.913,0.654c0.976,0,1.917,0.104,2.847,0.23l-1.467,6.602H30l-1.261-5.674
	c1.939,0.688,3.697,1.645,5.172,2.839c0.818,0.654,1.729,1.188,2.632,1.722L35,86.667h6.667l-1.121-5.043
	c2.436,0.893,5.011,1.4,7.631,1.569L46.667,90h6.666l-1.51-6.807c2.62-0.169,5.195-0.677,7.63-1.569l-1.12,5.043H65l-1.543-6.947
	c0.905-0.533,1.813-1.064,2.634-1.722c1.475-1.194,3.232-2.151,5.172-2.839L70,80.833h6.667l-1.465-6.602
	c0.928-0.127,1.868-0.23,2.845-0.23c1.722,0,3.35-0.271,4.915-0.654l-1.295,5.82h6.666l-1.592-7.165
	C87.917,71.426,89.036,70.781,90,70z M50,21.666c1.777,0,3.516-0.227,5.218-0.557C53.61,26.879,51.094,30,50,30
	s-3.606-3.121-5.22-8.891C46.484,21.439,48.223,21.666,50,21.666z M25.323,24.449c0.254-1.354,2.064-3.557,3.34-4.064l8.482-3.396
	C38.682,28.324,43.847,36.666,50,36.666c6.152,0,11.318-8.342,12.854-19.674l8.477,3.389c1.279,0.512,3.093,2.719,3.347,4.068
	L77.5,39.506c-0.742,0.303-1.455,0.65-2.097,1.109c-2.389,1.705-3.936,4.395-5.433,6.996c-1.409,2.447-2.868,4.979-4.57,5.546
	c-1.885,0.651-4.661-0.599-7.347-1.79c-2.614-1.152-5.316-2.35-8.054-2.35c-2.741,0-5.442,1.197-8.06,2.35
	c-2.689,1.191-5.473,2.429-7.344,1.79c-1.699-0.566-3.158-3.096-4.57-5.546c-1.491-2.598-3.041-5.287-5.427-6.992
	c-0.644-0.459-1.356-0.809-2.1-1.111L25.323,24.449z M78.047,67.334c-6.048,0-11.784,1.946-16.149,5.481
	c-3.047,2.438-7.393,3.852-11.897,3.852s-8.849-1.413-11.923-3.874c-4.34-3.513-10.076-5.459-16.124-5.459
	c-1.583,0-3.132-0.264-4.53-0.752l4.12-21.967c0.042,0.027,0.108,0.043,0.149,0.072c1.504,1.074,2.773,3.281,4.004,5.417
	c1.875,3.262,3.813,6.627,7.318,7.799c0.901,0.3,1.81,0.43,2.715,0.43c2.838,0,5.67-1.256,8.235-2.389
	c2.142-0.951,4.349-1.928,6.035-1.928c1.68,0,3.894,0.977,6.028,1.928c3.393,1.497,7.246,3.203,10.954,1.959
	c3.506-1.172,5.446-4.544,7.321-7.799c1.23-2.14,2.5-4.347,4.004-5.421c0.039-0.029,0.107-0.045,0.149-0.07l4.118,21.969
	C81.179,67.07,79.632,67.334,78.047,67.334z"/>
<circle cx="50" cy="42.5" r="2.5"/>
<circle cx="30" cy="35.834" r="2.5"/>
<circle cx="70" cy="35.834" r="2.5"/>
<circle cx="63.333" cy="45.834" r="2.5"/>
<circle cx="36.667" cy="45.834" r="2.5"/>
</svg>
