<?xml version="1.0" encoding="utf-8"?>
<!-- Generator: Adobe Illustrator 16.0.0, SVG Export Plug-In . SVG Version: 6.00 Build 0)  -->
<!DOCTYPE svg PUBLIC "-//W3C//DTD SVG 1.0//EN" "http://www.w3.org/TR/2001/REC-SVG-20010904/DTD/svg10.dtd">
<svg version="1.0" id="Layer_1" xmlns="http://www.w3.org/2000/svg" xmlns:xlink="http://www.w3.org/1999/xlink" x="0px" y="0px"
	 width="100px" height="100px" viewBox="0 0 100 100" enable-background="new 0 0 100 100" xml:space="preserve">
<path d="M90,46.666H69.969l8.316-24.951l-2.357-2.355L61.766,33.525L50,10h-3.333v20.033l-24.951-8.318l-2.356,2.357l14.166,14.166
	L10,50v3.333h20.033l-8.317,24.951l2.356,2.357l14.167-14.167L50,90h3.334V69.968l24.951,8.316l2.357-2.356L66.479,61.761L90,50
	V46.666z M64.74,56.104c-0.785,1.897-3.275,2.627-4.643,3.994c-1.412,1.413-2.174,3.89-3.99,4.642
	c-1.816,0.756-4.105-0.455-6.108-0.455c-1.927,0.003-4.205,1.24-6.1,0.455c-1.898-0.781-2.631-3.274-3.994-4.639
	c-1.413-1.412-3.891-2.174-4.646-3.99c-0.752-1.823,0.456-4.108,0.459-6.11c-0.003-1.928-1.243-4.213-0.459-6.104
	c0.781-1.895,3.274-2.631,4.642-3.994c1.413-1.416,2.172-3.891,3.991-4.643c1.819-0.754,4.108,0.463,6.11,0.463
	c1.928,0,4.209-1.246,6.104-0.463c1.895,0.785,2.631,3.279,3.99,4.646c1.414,1.412,3.895,2.17,4.643,3.99
	c0.756,1.816-0.463,4.105-0.459,6.104C64.281,51.931,65.527,54.209,64.74,56.104z"/>
<path d="M50.007,40C44.479,40,40,44.479,40,50c0,5.524,4.479,10,10.008,10C55.527,60,60,55.524,60,50C60,44.479,55.527,40,50.007,40
	z M50.003,55C47.236,55,45,52.761,45,50c0-2.76,2.236-5,5.004-5C52.764,45,55,47.24,55,50C55,52.761,52.764,55,50.003,55z"/>
<circle cx="38.333" cy="18.334" r="3.333"/>
<path d="M58.334,81.667c0,1.842,1.49,3.333,3.334,3.333C63.506,85,65,83.509,65,81.667c0-1.843-1.494-3.334-3.332-3.334
	C59.824,78.333,58.334,79.824,58.334,81.667z"/>
<path d="M81.668,35c-1.844,0-3.334,1.49-3.334,3.334c0,1.838,1.49,3.332,3.334,3.332c1.842,0,3.332-1.494,3.332-3.332
	C85,36.49,83.51,35,81.668,35z"/>
<circle cx="18.333" cy="61.667" r="3.333"/>
<circle cx="64.142" cy="19.358" r="3.333"/>
<path d="M33.5,78.284c-1.303,1.303-1.303,3.412,0,4.714c1.302,1.302,3.411,1.302,4.717,0c1.302-1.302,1.299-3.415,0-4.714
	C36.911,76.982,34.804,76.982,33.5,78.284z"/>
<path d="M82.998,61.784c-1.301-1.299-3.41-1.303-4.713,0c-1.299,1.302-1.303,3.414,0,4.717c1.303,1.299,3.414,1.299,4.713,0
	C84.305,65.195,84.301,63.086,82.998,61.784z"/>
<path d="M21.715,33.502c-1.302-1.305-3.411-1.305-4.714,0c-1.302,1.299-1.302,3.412,0,4.715c1.303,1.301,3.415,1.299,4.714,0
	C23.017,36.914,23.017,34.805,21.715,33.502z"/>
</svg>
