<?xml version="1.0" encoding="utf-8"?>
<!-- Generator: Adobe Illustrator 16.0.0, SVG Export Plug-In . SVG Version: 6.00 Build 0)  -->
<!DOCTYPE svg PUBLIC "-//W3C//DTD SVG 1.0//EN" "http://www.w3.org/TR/2001/REC-SVG-20010904/DTD/svg10.dtd">
<svg version="1.0" id="Layer_1" xmlns="http://www.w3.org/2000/svg" xmlns:xlink="http://www.w3.org/1999/xlink" x="0px" y="0px"
	 width="100px" height="100px" viewBox="0 0 100 100" enable-background="new 0 0 100 100" xml:space="preserve">
<path d="M52.624,47.061l-14.29-10.394c2.223-3.22,2.223-8.444,0-11.667H45v-3.333c-1.978-1.364-4.351-2.259-6.854-2.786
	l-0.934-5.593C36.914,11.481,35.166,10,33.334,10c-1.834,0-3.582,1.481-3.883,3.288l-0.932,5.596
	c-2.5,0.524-4.875,1.419-6.854,2.783V25h6.668c-2.223,3.223-2.223,8.447,0,11.667L14.043,47.061C11.82,48.679,10,52.25,10,55v28.334
	C10,87.016,12.984,90,16.666,90H50c3.682,0,6.667-2.984,6.667-6.666V55C56.667,52.25,54.847,48.679,52.624,47.061z M50,83.334
	H16.666V55c0.023-0.66,0.779-2.141,1.307-2.555l15.361-11.169l15.367,11.175c0.521,0.408,1.276,1.889,1.299,2.557V83.334z"/>
<path d="M21.666,56.498l3.535,3.535c4.344-4.342,11.922-4.342,16.264,0L45,56.498C38.559,50.057,28.105,50.057,21.666,56.498z"/>
<rect x="21.666" y="65" width="23.334" height="13.334"/>
<path d="M63.333,56.668V60c3.21,9.262,5,19.389,5,30H85c0-10.611,1.79-20.738,5-30v-3.332H63.333z M78.555,83.334h-3.776
	c-0.449-6.811-1.592-13.502-3.418-20h10.612C80.146,69.832,79.004,76.523,78.555,83.334z"/>
<path d="M60.974,22.123c-6.508,6.5-6.508,17.063,0,23.57c6.507,6.504,17.063,6.498,23.57-0.006c0.808-0.805,1.508-1.677,2.123-2.588
	L63.564,20C62.649,20.612,61.78,21.315,60.974,22.123z M79.421,43.471c-0.678,0.465-1.406,0.889-2.201,1.211
	c-0.787,0.335-1.607,0.553-2.415,0.703l-1.413-9.936L79.421,43.471z M70.713,45.381c-0.817-0.146-1.628-0.367-2.422-0.689
	c-0.791-0.336-1.526-0.752-2.207-1.221l6.035-8.021L70.713,45.381z M63.196,40.573c-0.469-0.677-0.892-1.406-1.221-2.2
	c-0.325-0.795-0.547-1.608-0.693-2.422l9.936-1.406L63.196,40.573z M71.218,33.271l-9.938-1.409c0.149-0.813,0.371-1.624,0.7-2.415
	c0.325-0.795,0.745-1.53,1.217-2.207L71.218,33.271z"/>
</svg>
