<?xml version="1.0" encoding="utf-8"?>
<!-- Generator: Adobe Illustrator 16.0.0, SVG Export Plug-In . SVG Version: 6.00 Build 0)  -->
<!DOCTYPE svg PUBLIC "-//W3C//DTD SVG 1.0//EN" "http://www.w3.org/TR/2001/REC-SVG-20010904/DTD/svg10.dtd">
<svg version="1.0" id="Layer_1" xmlns="http://www.w3.org/2000/svg" xmlns:xlink="http://www.w3.org/1999/xlink" x="0px" y="0px"
	 width="100px" height="100px" viewBox="0 0 100 100" enable-background="new 0 0 100 100" xml:space="preserve">
<path d="M86.666,63.332c-5.908,2.595-12.9,4.408-20.326,5.488C64.824,50.484,58.086,36.666,50,36.666
	c-8.076,0-14.819,13.818-16.342,32.155c-7.424-1.08-14.416-2.894-20.324-5.488L10,66.666c0,12.887,13.435,23.333,30,23.333h20
	c16.564,0,30-10.446,30-23.333L86.666,63.332z M50,43.333c0.986,0,2.681,1.695,4.4,5h-8.801C47.318,45.028,49.018,43.333,50,43.333z
	 M43.487,53.333h13.027c0.502,1.438,0.973,3.033,1.4,4.775c-0.375,0.068-0.752,0.137-1.072,0.24l-3.678,1.224
	c-1.738,0.58-4.583,0.58-6.322,0l-3.678-1.224c-0.322-0.107-0.695-0.179-1.076-0.247C42.516,56.363,42.987,54.771,43.487,53.333z
	 M41.084,62.994c0.182,0.025,0.371,0.052,0.498,0.094l3.678,1.221c2.748,0.918,6.738,0.918,9.486,0l3.672-1.221
	c0.127-0.042,0.316-0.068,0.498-0.094c0.342,2.047,0.615,4.244,0.801,6.602c-6.416,0.533-13.017,0.533-19.433,0
	C40.469,67.238,40.743,65.041,41.084,62.994z M60,83.332H40c-9.959,0-18.703-4.732-21.969-11.155
	c9.356,2.917,20.424,4.489,31.969,4.489c11.546,0,22.613-1.572,31.968-4.489C78.701,78.6,69.961,83.332,60,83.332z"/>
<path d="M28.319,38.15c4.539-2.854,6.707-9.531,4.873-16.367c-2.145-8.001-8.926-13.134-15.147-11.468
	c-6.224,1.666-9.536,9.508-7.392,17.51c1.832,6.832,7.045,11.529,12.402,11.734l2.074,10.065c0.393,1.905,2.252,3.05,4.127,2.549
	c1.881-0.505,2.916-2.429,2.301-4.271L28.319,38.15z M24.081,32.854c-2.281,0.608-5.753-2.148-6.988-6.755
	c-1.234-4.606,0.396-8.733,2.678-9.345c2.276-0.609,5.748,2.15,6.983,6.757S26.362,32.239,24.081,32.854z"/>
<path d="M80.826,16.805c-6.348-1.119-12.662,4.587-14.102,12.748c-1.227,6.963,1.514,13.428,6.283,15.875l-2.377,10
	c-0.449,1.892,0.756,3.718,2.666,4.056c1.918,0.332,3.668-0.97,3.891-2.899l1.184-10.209c5.322-0.67,10.107-5.807,11.332-12.773
	C91.145,25.445,87.168,17.926,80.826,16.805z M83.141,32.447c-0.824,4.697-4.043,7.744-6.371,7.337
	c-2.324-0.41-4.307-4.378-3.477-9.075c0.828-4.697,4.051-7.747,6.375-7.337C81.988,23.782,83.971,27.75,83.141,32.447z"/>
</svg>
