<?xml version="1.0" encoding="utf-8"?>
<!-- Generator: Adobe Illustrator 16.0.0, SVG Export Plug-In . SVG Version: 6.00 Build 0)  -->
<!DOCTYPE svg PUBLIC "-//W3C//DTD SVG 1.0//EN" "http://www.w3.org/TR/2001/REC-SVG-20010904/DTD/svg10.dtd">
<svg version="1.0" id="Layer_1" xmlns="http://www.w3.org/2000/svg" xmlns:xlink="http://www.w3.org/1999/xlink" x="0px" y="0px"
	 width="100px" height="100px" viewBox="0 0 100 100" enable-background="new 0 0 100 100" xml:space="preserve">
<path d="M85.938,42.702L90,39.863l-0.635-1.539l-3.301,1.338l1.175-4.023L85.699,35l-2.011,3.679l-1.387-3.281l-1.54,0.638
	l0.749,4.213c-1.729-0.583-3.471-0.837-5.134-0.7c-0.163-0.696-0.4-1.357-0.726-1.976c1.68-3.337,2.682-7.002,2.682-10.902
	c0-2.525-0.557-4.859-1.471-6.875l4.805-1.057V17.07l-3.562-0.021l2.627-3.269l-1.179-1.179l-3.271,2.623l-0.022-3.557h-1.667
	l-0.843,3.82c-1.565-1.35-3.418-2.15-5.416-2.15c-5.521-0.004-10,5.967-10,13.329c0,3.304,0.726,6.442,1.953,9.358
	c-0.859,0.59-1.696,1.244-2.475,2.025c-3.385,3.382-5.504,7.559-6.517,12.04C50.866,50.046,50.437,50,50.001,50
	c-0.554,0-1.104,0.042-1.647,0.117c-0.264-2.656-0.862-5.299-1.927-7.864c-0.195-0.479-0.456-0.901-0.684-1.354
	c2.578-1.523,4.869-4.121,6.272-7.503c2.822-6.804,0.967-14.03-4.138-16.142c-0.188-0.082-0.396-0.096-0.592-0.16l2.715-4.248
	l-1.179-1.178l-2.532,2.5l-0.456-4.167h-1.667l-0.453,4.167l-2.535-2.5l-1.178,1.178l2.664,4.174
	c-3.674,0.957-7.222,4.127-9.125,8.723c-0.836,2.019-1.21,4.057-1.259,6c-0.88,0.084-1.749,0.26-2.585,0.608
	c-0.115,0.046-0.205,0.13-0.316,0.183C27.329,30.964,24.637,30,21.666,30c-0.56,0-1.095,0.078-1.636,0.144l0.876-4.941l-1.54-0.638
	l-1.383,3.281l-2.016-3.679l-1.539,0.638l1.175,4.023l-3.298-1.338l-0.638,1.54l3.691,2.578C12.142,33.389,10,36.472,10,40
	c0,5.524,5.222,10,11.666,10c0.942,0,1.846-0.117,2.717-0.306c0.163,0.498,0.283,0.992,0.488,1.487
	c0.352,0.847,0.769,1.647,1.191,2.441l-4.396,0.97v1.667l3.56,0.026l-2.625,3.268l1.178,1.179l3.268-2.627l0.023,3.561h1.667
	l0.685-3.105c1.594,1.889,3.486,3.467,5.497,4.896c-0.921,2.754-1.468,5.794-1.553,9.007L29.513,70l-1.178,1.178l2.498,2.533
	l-4.166,0.455v1.667l4.166,0.455l-2.498,2.533l1.178,1.178l3.979-2.539c0.313,4.346,1.109,8.545,2.326,12.539h7.043
	c-1.855-5.279-2.859-10.918-2.859-16.666c0-9.821,5.27-16.666,10-16.666c4.729,0,9.999,6.845,9.999,16.666
	c0,5.748-1.006,11.383-2.861,16.666h7.041c1.602-5.247,2.487-10.843,2.487-16.666c0-1.13-0.078-2.229-0.188-3.313l4.989,0.889
	l0.639-1.54l-3.281-1.387L72.5,65.97l-0.635-1.54l-4.029,1.172l1.341-3.297l-1.54-0.639l-2.151,3.08
	c-0.713-2.507-1.722-4.792-2.972-6.784c2.363-0.804,4.622-1.917,6.666-3.428c1.321,1.855,3.174,3.457,5.55,4.44
	c5.957,2.467,12.493,0.332,14.606-4.772C90.973,50.254,89.456,45.707,85.938,42.702z M23.39,43.096
	c-0.532,0.141-1.099,0.238-1.724,0.238c-2.946,0-4.999-1.755-4.999-3.334c0-1.575,2.053-3.333,4.999-3.333
	c1.171,0,2.18,0.29,2.99,0.723C23.873,39.066,23.462,41.02,23.39,43.096z M39.698,28.295c1.582-3.822,4.544-5.336,5.628-4.883
	c1.087,0.449,2.116,3.613,0.53,7.435c-1.067,2.575-2.754,4.082-4.076,4.665c-0.889-0.834-1.818-1.576-2.8-2.148
	C38.766,32.028,38.888,30.251,39.698,28.295z M37.829,57.432c-2.992-2.337-5.342-5.286-6.798-8.803
	c-1.917-4.618-0.918-9.237,1.218-10.119c2.135-0.886,6.106,1.673,8.021,6.295c1.092,2.633,1.551,5.41,1.546,8.22
	C40.328,54.202,38.988,55.693,37.829,57.432z M67.24,47.477c-2.631,2.631-5.964,4.327-9.697,4.984
	c0.657-3.734,2.35-7.063,4.983-9.697c2.923-2.923,6.24-3.189,7.07-2.356C70.427,41.237,70.163,44.555,67.24,47.477z M70.202,33.581
	c-1.194-0.247-2.461-0.3-3.776-0.098C65.521,31.322,65,29.037,65,26.667c0-4.134,2.158-6.667,3.334-6.663
	c1.175,0,3.333,2.529,3.333,6.666C71.667,29.072,71.133,31.394,70.202,33.581z M83.177,51.65c-0.602,1.455-3.177,2.292-5.895,1.165
	c-1.768-0.732-2.829-1.998-3.242-3.199c0.699-1.028,1.253-2.097,1.67-3.177c1.116-0.385,2.571-0.427,4.124,0.218
	C82.552,47.783,83.779,50.195,83.177,51.65z"/>
</svg>
