<?xml version="1.0" encoding="utf-8"?>
<!-- Generator: Adobe Illustrator 16.0.0, SVG Export Plug-In . SVG Version: 6.00 Build 0)  -->
<!DOCTYPE svg PUBLIC "-//W3C//DTD SVG 1.0//EN" "http://www.w3.org/TR/2001/REC-SVG-20010904/DTD/svg10.dtd">
<svg version="1.0" id="Layer_1" xmlns="http://www.w3.org/2000/svg" xmlns:xlink="http://www.w3.org/1999/xlink" x="0px" y="0px"
	 width="100px" height="100px" viewBox="0 0 100 100" enable-background="new 0 0 100 100" xml:space="preserve">
<circle cx="61.667" cy="38.333" r="2.5"/>
<circle cx="51.667" cy="38.333" r="2.5"/>
<circle cx="56.667" cy="31.667" r="2.5"/>
<path d="M46.667,49.167c0,1.381-1.123,2.5-2.5,2.5c-1.381,0-2.5-1.119-2.5-2.5c-0.004-1.38,1.116-2.5,2.5-2.5
	C45.547,46.667,46.667,47.787,46.667,49.167z"/>
<path d="M41.667,42.5c-0.004,1.38-1.123,2.5-2.5,2.5c-1.381,0-2.5-1.12-2.5-2.5c-0.004-1.381,1.119-2.5,2.5-2.5
	C40.547,40,41.667,41.12,41.667,42.5z"/>
<path d="M56.667,16.667H43.33C24.922,16.667,9.997,31.588,10,50v3.333c0,5.527,4.473,10,10,10h21.278
	c2.833-1.945,5.245-4.172,7.201-6.666H29.382c0.377-1.049,0.611-2.154,0.618-3.334V50c0-14.733,11.934-26.667,26.667-26.667
	c14.732,0,26.666,11.934,26.666,26.667v3.333c0,1.844-1.49,3.334-3.333,3.334h-3.288l0.625-1.504
	c1.576-3.834-0.501-8.327-4.642-10.045l3.132-5.912l-4.623-1.914l-1.973,6.4c-4.141-1.719-8.795-0.007-10.377,3.814l-1.914,4.616
	c-5.612,13.549-19.945,21.961-38.607,24.604l0.199,2.787c21.582,8.932,45.367,1.666,55.176-16.18H80c5.521,0,10-4.473,10-10V50
	C90,31.588,75.078,16.667,56.667,16.667z M23.33,50v3.333c0.003,1.844-1.491,3.334-3.333,3.334c-1.84,0-3.33-1.49-3.33-3.334V50
	c-0.004-11.83,7.708-21.843,18.369-25.332C27.881,30.782,23.33,39.857,23.33,50z M71.172,52.604l-1.914,4.623
	c-4.505,10.871-14.974,17.746-27.054,19.166c9.879-5.078,17.061-12.455,20.895-21.719l1.914-4.616
	c0.111-0.273,0.827-0.561,1.66-0.215l3.477,1.438C70.977,51.628,71.282,52.337,71.172,52.604z"/>
</svg>
