<?xml version="1.0" encoding="utf-8"?>
<!-- Generator: Adobe Illustrator 16.0.0, SVG Export Plug-In . SVG Version: 6.00 Build 0)  -->
<!DOCTYPE svg PUBLIC "-//W3C//DTD SVG 1.0//EN" "http://www.w3.org/TR/2001/REC-SVG-20010904/DTD/svg10.dtd">
<svg version="1.0" id="Layer_1" xmlns="http://www.w3.org/2000/svg" xmlns:xlink="http://www.w3.org/1999/xlink" x="0px" y="0px"
	 width="100px" height="100px" viewBox="0 0 100 100" enable-background="new 0 0 100 100" xml:space="preserve">
<path d="M77.143,10.184C68.076,8.585,58.916,17.58,56.68,30.27c-1.745,9.896,1.247,19.095,6.943,23.434
	c0.789,4.401,0.876,8.992,0.057,13.633c-0.251,1.433-1.053,2.768-2.339,3.67c-1.193,0.836-2.066,2.126-2.34,3.672
	c-0.639,3.626,1.78,7.086,5.406,7.727c3.628,0.639,7.087-1.783,7.729-5.41c0.27-1.549-0.107-3.06-0.947-4.253
	c-0.898-1.287-1.195-2.813-0.941-4.249c0.821-4.639,2.476-8.922,4.714-12.79c6.837-2.129,12.797-9.749,14.542-19.646
	C91.741,23.368,86.209,11.778,77.143,10.184z M75.983,16.75c2.415,0.424,4.63,2.709,5.99,6.133L68.262,20.46
	C70.707,17.71,73.571,16.324,75.983,16.75z M82.94,34.898c-0.42,2.389-1.131,4.537-2.025,6.412l-17.963-3.167
	c-0.198-2.07-0.13-4.329,0.29-6.719c0.423-2.386,1.133-4.535,2.024-6.413l17.963,3.167C83.429,30.25,83.36,32.512,82.94,34.898z
	 M70.195,49.576c-2.412-0.427-4.628-2.709-5.985-6.133l13.714,2.418C75.477,48.612,72.61,50.002,70.195,49.576z"/>
<polygon points="71.448,32.877 68.262,36.542 66.523,32.004 69.711,28.335 "/>
<polygon points="79.655,34.322 76.473,37.99 74.729,33.453 77.917,29.784 "/>
<path d="M57.112,80.514c-0.664-1.426-1.842-2.444-3.213-2.943c-1.475-0.536-2.594-1.621-3.209-2.938
	c-1.933-4.147-3.024-8.468-3.438-12.79c6.156-6.445,7.344-18.271,2.221-29.258C43.25,19.237,30.085,12.203,20.078,16.867
	c-10.013,4.672-13.082,19.275-6.857,32.622c5.124,10.987,14.946,17.682,23.844,17.105c3.043,3.096,5.65,6.713,7.584,10.856
	c0.615,1.319,0.727,2.871,0.189,4.35c-0.502,1.366-0.476,2.924,0.188,4.349c1.555,3.337,5.523,4.781,8.86,3.227
	C57.224,87.819,58.669,83.851,57.112,80.514z M22.896,22.909c3.94-1.836,8.912-0.479,13.248,3.021l-19.426,9.057
	C16.831,29.426,18.962,24.745,22.896,22.909z M17.214,40.272l22.666-10.57c1.353,1.686,2.569,3.59,3.552,5.7
	c0.986,2.116,1.626,4.274,2.051,6.4l-22.67,10.57c-1.351-1.687-2.566-3.591-3.55-5.7C18.276,44.557,17.635,42.398,17.214,40.272z
	 M39.8,59.163c-3.94,1.835-8.912,0.481-13.248-3.019l19.424-9.059C45.867,52.646,43.738,57.326,39.8,59.163z"/>
<polygon points="33.613,39.979 33.11,44.813 29.082,42.091 29.587,37.262 "/>
<polygon points="26.062,43.502 25.557,48.336 21.53,45.614 22.035,40.783 "/>
<polygon points="41.167,36.457 40.661,41.291 36.635,38.57 37.139,33.739 "/>
</svg>
