<?xml version="1.0" encoding="utf-8"?>
<!-- Generator: Adobe Illustrator 16.0.0, SVG Export Plug-In . SVG Version: 6.00 Build 0)  -->
<!DOCTYPE svg PUBLIC "-//W3C//DTD SVG 1.0//EN" "http://www.w3.org/TR/2001/REC-SVG-20010904/DTD/svg10.dtd">
<svg version="1.0" id="Layer_1" xmlns="http://www.w3.org/2000/svg" xmlns:xlink="http://www.w3.org/1999/xlink" x="0px" y="0px"
	 width="100px" height="100px" viewBox="0 0 100 100" enable-background="new 0 0 100 100" xml:space="preserve">
<path d="M66.667,49.45l-2.602-1.53L63.831,45l-2.229,1.898l-2.923-0.756l1.221,2.702l-1.566,2.458l2.982-0.23l1.953,2.271
	l0.625-2.848L66.667,49.45z"/>
<path d="M25,53.559l2.08-1.225L27.27,50l1.783,1.518l2.338-0.602l-0.977,2.16l1.252,1.967l-2.385-0.186l-1.563,1.82l-0.498-2.279
	L25,53.559z"/>
<path d="M55.833,52.504c0,1.377-1.119,2.496-2.5,2.496c-1.38,0-2.5-1.119-2.5-2.496c0-1.383,1.12-2.504,2.5-2.504
	C54.714,50,55.833,51.121,55.833,52.504z"/>
<path d="M38.334,50.838c0,0.918-0.746,1.662-1.668,1.662C35.747,52.5,35,51.756,35,50.838c0-0.926,0.747-1.671,1.666-1.671
	C37.588,49.167,38.334,49.912,38.334,50.838z"/>
<polygon points="42.5,49.167 44.116,52.553 47.5,54.168 45.885,50.785 "/>
<polygon points="42.5,54.168 45.885,52.553 47.5,49.167 44.116,50.785 "/>
<path d="M88.435,26.098L71.667,20L70,10h-3.333l-7.855,23.688C57.63,37.162,53.665,40,50,40H26.666
	c-5.499,0-10.74,4.44-11.643,9.863L10,80l4.932,0.824l2.359-14.16L21.666,90h5V73.334h1.668L31.666,90h5V73.334H55V90h5
	l3.333-16.666H65V90h5l6.667-36.666l-2.025-10.131c-0.719-3.594,1.635-7.122,5.229-7.842l8.496-1.699
	C89.265,33.48,90,32.585,90,31.667v-3.333C90,27.419,89.294,26.413,88.435,26.098z M21.598,50.961
	c0.369-2.207,2.831-4.294,5.068-4.294H50c6.521,0,13.021-4.655,15.124-10.83l0.143-0.427l3.711,1.348
	c-1.021,2.37-1.419,5.033-0.872,7.754l1.774,8.881l-0.453,2.494c-3.809-0.486-7.691-0.01-11.341,1.5
	c-3.069,1.264-6.448,1.27-9.512,0c-5.527-2.291-11.617-2.289-17.152-0.004c-2.926,1.209-6.121,1.234-9.063,0.141l-0.982-5.24
	L21.598,50.961z M24.076,66.668l-0.684-3.646c3.402,0.654,6.855,0.26,9.941-1.016c4.121-1.703,8.887-1.84,13.33,0
	c4.442,1.84,9.215,1.703,13.333,0c2.662-1.1,5.589-1.479,8.525-1.137l-1.055,5.799H24.076z M71.667,28.334
	c-0.918,0-1.667-0.746-1.667-1.667S70.749,25,71.667,25s1.666,0.746,1.666,1.667S72.585,28.334,71.667,28.334z"/>
</svg>
