<?xml version="1.0" encoding="utf-8"?>
<!-- Generator: Adobe Illustrator 16.0.0, SVG Export Plug-In . SVG Version: 6.00 Build 0)  -->
<!DOCTYPE svg PUBLIC "-//W3C//DTD SVG 1.0//EN" "http://www.w3.org/TR/2001/REC-SVG-20010904/DTD/svg10.dtd">
<svg version="1.0" id="Layer_1" xmlns="http://www.w3.org/2000/svg" xmlns:xlink="http://www.w3.org/1999/xlink" x="0px" y="0px"
	 width="100px" height="100px" viewBox="0 0 100 100" enable-background="new 0 0 100 100" xml:space="preserve">
<path d="M46.667,40H45c-5.524,0-10.003-4.482-10-10v-2.546c2.432-0.801,4.738-2.126,6.667-4.121V20H35l-1.667-10h-6.667L25,20
	h-6.667v3.333c1.929,1.999,4.235,3.32,6.667,4.121V30c0.003,5.518-4.476,10-10,10h-1.667C11.493,40,10,41.49,10,43.333v43.333
	C10,88.506,11.494,90,13.333,90h33.333C48.506,90,50,88.506,50,86.666V43.333C50,41.49,48.509,40,46.667,40z M43.333,83.332H16.667
	V46.585c3.822-0.378,7.37-2.048,10.121-4.802c1.332-1.334,2.412-2.852,3.213-4.498c0.801,1.646,1.881,3.164,3.213,4.498
	c2.754,2.754,6.299,4.424,10.121,4.802V83.332z"/>
<rect x="21.667" y="73.332" width="16.667" height="5"/>
<path d="M35,51.666c-0.527-1.275-1.549-2.347-2.93-2.916c-1.382-0.573-2.861-0.531-4.141-0.004s-2.358,1.539-2.93,2.92h-3.333
	v16.666h16.667V51.666H35z"/>
<path d="M73.333,56.666c-9.205,0-16.666,7.461-16.666,16.666C56.667,82.535,64.128,90,73.333,90C82.532,90,90,82.535,90,73.332
	C90,64.127,82.532,56.666,73.333,56.666z M81.582,65.084c0.608,0.605,1.123,1.273,1.569,1.967l-8.64,5.104l5.104-8.639
	C80.31,63.961,80.977,64.475,81.582,65.084z M73.333,61.666c0.859,0,1.693,0.107,2.5,0.283l-2.5,9.717l-2.5-9.717
	C71.641,61.773,72.474,61.666,73.333,61.666z M65.085,65.084c0.605-0.609,1.272-1.123,1.966-1.568l5.104,8.639l-8.64-5.104
	C63.965,66.357,64.476,65.689,65.085,65.084z M61.667,73.332c0-0.859,0.107-1.691,0.283-2.5l9.717,2.5l-9.717,2.5
	C61.774,75.025,61.667,74.191,61.667,73.332z M65.085,81.582c-0.609-0.605-1.12-1.273-1.569-1.967l8.64-5.104l-5.104,8.639
	C66.357,82.705,65.69,82.189,65.085,81.582z M73.333,85c-0.859,0-1.692-0.107-2.5-0.283l2.5-9.717l2.5,9.717
	C75.026,84.893,74.192,85,73.333,85z M81.582,81.582c-0.605,0.607-1.272,1.123-1.966,1.568l-5.104-8.639l8.64,5.104
	C82.705,80.309,82.19,80.977,81.582,81.582z M84.717,75.832L75,73.332l9.717-2.5c0.176,0.809,0.283,1.641,0.283,2.5
	S84.893,75.025,84.717,75.832z"/>
<path d="M85.11,28.213c-6.5-6.508-17.063-6.508-23.567,0c-6.507,6.507-6.501,17.063,0.003,23.57c0.805,0.807,1.677,1.51,2.588,2.123
	l23.1-23.103C86.621,29.889,85.918,29.02,85.11,28.213z M63.763,46.663c-0.465-0.677-0.885-1.409-1.211-2.204
	c-0.332-0.787-0.553-1.604-0.703-2.415l9.936-1.413L63.763,46.663z M61.853,37.952c0.146-0.817,0.367-1.628,0.693-2.422
	c0.332-0.791,0.748-1.526,1.217-2.204l8.021,6.032L61.853,37.952z M66.66,30.436c0.677-0.469,1.406-0.892,2.2-1.221
	c0.795-0.325,1.608-0.547,2.422-0.693l1.406,9.936L66.66,30.436z M73.965,38.457l1.406-9.938c0.813,0.149,1.628,0.371,2.415,0.7
	c0.795,0.325,1.53,0.745,2.207,1.217L73.965,38.457z"/>
</svg>
