<?xml version="1.0" encoding="utf-8"?>
<!-- Generator: Adobe Illustrator 16.0.0, SVG Export Plug-In . SVG Version: 6.00 Build 0)  -->
<!DOCTYPE svg PUBLIC "-//W3C//DTD SVG 1.0//EN" "http://www.w3.org/TR/2001/REC-SVG-20010904/DTD/svg10.dtd">
<svg version="1.0" id="Layer_1" xmlns="http://www.w3.org/2000/svg" xmlns:xlink="http://www.w3.org/1999/xlink" x="0px" y="0px"
	 width="100px" height="100px" viewBox="0 0 100 100" enable-background="new 0 0 100 100" xml:space="preserve">
<path d="M73.323,10L67.468,24.14c-0.414-0.371-0.879-0.693-1.423-0.918c-2.549-1.058-5.476,0.149-6.533,2.705
	c-1.058,2.552,0.156,5.476,2.705,6.533c2.552,1.055,5.476-0.153,6.533-2.708l4.007-9.672l10.004,1.979l-1.699,4.104
	c-0.414-0.374-0.879-0.696-1.423-0.921c-2.549-1.058-5.476,0.153-6.533,2.705c-1.058,2.556,0.156,5.479,2.708,6.533
	c2.549,1.058,5.476-0.153,6.53-2.705L90,13.3L73.323,10z M74.06,16.94l1.299-3.139l10.006,1.979l-1.302,3.138L74.06,16.94z"/>
<path d="M23.559,66.677l-5.221,12.601c-0.412-0.371-0.881-0.696-1.422-0.921c-2.551-1.055-5.476,0.152-6.533,2.708
	c-1.059,2.552,0.156,5.476,2.707,6.53c2.55,1.058,5.475-0.15,6.533-2.705l5.968-14.411l10.005,1.976l-3.664,8.848
	c-0.412-0.374-0.881-0.696-1.422-0.921c-2.551-1.058-5.476,0.153-6.533,2.705c-1.057,2.552,0.156,5.476,2.707,6.533
	c2.55,1.055,5.475-0.153,6.533-2.705l7.014-16.94L23.559,66.677z"/>
<path d="M24.73,51.68l-7.018-16.941l-2.824,1.895l4.965,11.982c-0.555,0.029-1.115,0.131-1.656,0.355
	c-2.551,1.058-3.764,3.981-2.707,6.534c1.058,2.552,3.982,3.763,6.533,2.705C24.574,57.155,25.786,54.231,24.73,51.68z"/>
<path d="M62.725,55.654c1.956,1.953,1.953,5.12,0,7.07c-1.95,1.953-5.114,1.956-7.07,0c-1.95-1.95-1.95-5.117,0-7.07
	C57.607,53.704,60.774,53.704,62.725,55.654z"/>
<rect x="59.207" y="66.708" transform="matrix(0.7071 -0.7071 0.7071 0.7071 -28.6667 69.2075)" width="20.002" height="4.999"/>
<path d="M85.117,52.119c-3.259-3.255-7.52-4.886-11.784-4.88l-5.006,0.004c-3.161-0.004-5.727-2.568-5.723-5.729
	c0-2.985-1.137-5.97-3.415-8.249c-4.554-4.557-11.939-4.561-16.498,0l-2.355,2.357L24.73,20.012L18.252,10
	c-3.854,0.71-7.544,4.401-8.252,8.249l10.006,6.475l15.615,15.611l-2.355,2.357c-4.561,4.557-4.559,11.944,0,16.498
	c2.277,2.278,5.264,3.418,8.248,3.415c3.158,0,5.727,2.562,5.727,5.723v5.006c-0.008,4.265,1.624,8.525,4.879,11.784
	c6.511,6.511,17.061,6.511,23.571,0l9.427-9.427C91.628,69.18,91.628,58.63,85.117,52.119z M80.403,70.977l-9.427,9.427
	c-3.899,3.9-10.244,3.9-14.144,0c-1.892-1.891-2.93-4.397-2.927-7.063l-0.003-5.01c0.003-3.311-1.286-6.423-3.63-8.767
	c-2.34-2.337-5.455-3.623-8.76-3.623c-1.338,0-2.592-0.521-3.535-1.465c-1.949-1.949-1.953-5.118,0-7.071l2.357-2.356l7.07,7.071
	l4.713-4.714l-7.07-7.07l2.357-2.356c1.946-1.95,5.12-1.95,7.069,0c0.944,0.944,1.465,2.2,1.462,3.528
	c0,3.317,1.286,6.426,3.626,8.767c2.341,2.341,5.456,3.633,8.764,3.636l5.006-0.003c2.67,0,5.18,1.035,7.07,2.927
	C84.304,60.732,84.304,67.077,80.403,70.977z"/>
</svg>
