<?xml version="1.0" encoding="utf-8"?>
<!-- Generator: Adobe Illustrator 16.0.0, SVG Export Plug-In . SVG Version: 6.00 Build 0)  -->
<!DOCTYPE svg PUBLIC "-//W3C//DTD SVG 1.0//EN" "http://www.w3.org/TR/2001/REC-SVG-20010904/DTD/svg10.dtd">
<svg version="1.0" id="Layer_1" xmlns="http://www.w3.org/2000/svg" xmlns:xlink="http://www.w3.org/1999/xlink" x="0px" y="0px"
	 width="100px" height="100px" viewBox="0 0 100 100" enable-background="new 0 0 100 100" xml:space="preserve">
<polygon points="35.448,75.931 30.884,82.331 38.636,83.626 43.203,77.227 "/>
<path d="M23.966,74.343l4.619,1.914c1.934-4.655,7.287-6.875,11.945-4.948l1.914-4.616C35.231,63.704,26.955,67.129,23.966,74.343z"
	/>
<path d="M77.363,46.094c8.828-9.975,10.527-22.695,10.527-22.695c0.954-7.158-4.131-12.24-11.289-11.283
	c0,0-12.728,1.693-22.705,10.531C47.578,17.836,40.749,13.561,33.433,10c-5.205,5.209-5.205,13.648,0.001,18.857l37.711,37.712
	c5.209,5.208,13.649,5.208,18.854,0C86.536,59.431,82.292,52.559,77.363,46.094z M77.48,18.725c2.712-0.365,4.16,1.1,3.806,3.779
	c-0.01,0.061-0.488,3.262-2.08,7.49c-1.396-1.654-3.145-3.164-4.831-4.008l-3.464-1.729c-0.667-0.338-1.9-1.572-2.236-2.24
	l-0.289-0.576C73.392,19.332,77.422,18.73,77.48,18.725z M63.906,23.656l0.3,0.596c0.82,1.641,2.832,3.652,4.469,4.469l3.467,1.734
	c1.638,0.82,3.649,2.832,4.47,4.473l0.179,0.352c-1.009,1.859-2.217,3.744-3.691,5.537c-4.225-4.953-8.867-9.625-13.906-13.922
	C60.723,25.639,62.317,24.566,63.906,23.656z M75.859,61.855L38.146,24.145c-1.414-1.416-2.061-3.318-1.934-5.176
	c9.295,5.191,17.857,11.67,25.5,19.313c7.673,7.672,14.15,16.23,19.326,25.508C79.18,63.913,77.275,63.274,75.859,61.855z"/>
<path d="M48.187,54.421c-0.707-1.706-2.653-2.514-4.355-1.804l-1.54,0.638c-5.104,2.109-10.958-0.318-13.066-5.417l-0.975-2.35
	c1.94-1.67,3.564-3.775,4.582-6.357l-1.274-3.08L25.399,38.6L20.031,30l-6.159,2.553l2.287,9.875L10,44.98l1.276,3.08
	c2.546,1.105,5.183,1.448,7.736,1.256l0.973,2.351c2.116,5.098-0.308,10.95-5.412,13.066l-1.54,0.638
	c-1.702,0.703-2.508,2.649-1.803,4.355L19.629,90h7.215l-8.21-19.817c3.386-1.816,6.025-4.714,7.512-8.314
	c0.719-1.738,1.138-3.555,1.247-5.384c1.371,1.218,2.949,2.2,4.691,2.93c3.597,1.491,7.513,1.673,11.188,0.56L55.71,90h7.213
	L48.187,54.421z"/>
</svg>
