<?xml version="1.0" encoding="utf-8"?>
<!-- Generator: Adobe Illustrator 16.0.0, SVG Export Plug-In . SVG Version: 6.00 Build 0)  -->
<!DOCTYPE svg PUBLIC "-//W3C//DTD SVG 1.0//EN" "http://www.w3.org/TR/2001/REC-SVG-20010904/DTD/svg10.dtd">
<svg version="1.0" id="Layer_1" xmlns="http://www.w3.org/2000/svg" xmlns:xlink="http://www.w3.org/1999/xlink" x="0px" y="0px"
	 width="100px" height="100px" viewBox="0 0 100 100" enable-background="new 0 0 100 100" xml:space="preserve">
<path d="M56.667,63.333c-2.572,0-4.896,0.999-6.667,2.594c-1.771-1.595-4.095-2.594-6.667-2.594C30.446,63.333,20,73.782,20,86.666
	v3.333c4.258-4.121,10.153-6.666,16.667-6.666h6.666c2.572,0,4.896-1,6.667-2.595c1.771,1.595,4.095,2.595,6.667,2.595h6.666
	c6.514,0,12.409,2.545,16.667,6.666v-3.333C80,73.782,69.554,63.333,56.667,63.333z M43.333,76.666h-6.666
	c-2.478,0-4.909,0.286-7.256,0.847c2.984-4.521,8.108-7.514,13.922-7.514c1.84,0,3.334,1.494,3.334,3.334
	C46.667,75.172,45.173,76.666,43.333,76.666z M63.333,76.666h-6.666c-1.84,0-3.334-1.494-3.334-3.333
	c0-1.84,1.494-3.334,3.334-3.334c5.813,0,10.938,2.992,13.922,7.514C68.242,76.952,65.811,76.666,63.333,76.666z"/>
<path d="M66.585,37.792c-0.811-13.297-8.604-23.489-8.604-23.489c-4.388-5.735-11.575-5.735-15.963,0c0,0-7.8,10.198-8.605,23.503
	C25.544,38.866,17.692,40.677,10,43.333c0,7.363,5.97,13.333,13.333,13.333h53.334C84.03,56.666,90,50.696,90,43.333
	C82.503,40.735,74.642,38.876,66.585,37.792z M40.674,33.727c0.909-0.042,1.784-0.176,2.483-0.407l3.679-1.224
	c1.738-0.579,4.583-0.579,6.321,0l3.679,1.224c0.703,0.234,1.579,0.358,2.487,0.397c0.221,1.087,0.403,2.204,0.514,3.356
	c-6.49-0.515-13.072-0.534-19.676-0.01C40.273,35.921,40.456,34.808,40.674,33.727z M47.314,18.353
	c1.66-2.175,3.721-2.162,5.361-0.014c0.046,0.063,3.011,4.079,5.149,10.043l-3.086-1.025c-2.747-0.918-6.738-0.918-9.485,0
	l-3.083,1.025C44.308,22.418,47.272,18.407,47.314,18.353z M76.667,49.999H23.333c-2.004,0-3.803-0.892-5.025-2.291
	c10.247-2.904,20.877-4.375,31.686-4.375c10.85,0,21.484,1.465,31.703,4.368C80.472,49.107,78.672,49.999,76.667,49.999z"/>
</svg>
