<?xml version="1.0" encoding="utf-8"?>
<!-- Generator: Adobe Illustrator 16.0.0, SVG Export Plug-In . SVG Version: 6.00 Build 0)  -->
<!DOCTYPE svg PUBLIC "-//W3C//DTD SVG 1.0//EN" "http://www.w3.org/TR/2001/REC-SVG-20010904/DTD/svg10.dtd">
<svg version="1.0" id="Layer_1" xmlns="http://www.w3.org/2000/svg" xmlns:xlink="http://www.w3.org/1999/xlink" x="0px" y="0px"
	 width="100px" height="100px" viewBox="0 0 100 100" enable-background="new 0 0 100 100" xml:space="preserve">
<path d="M76.106,31.666c-0.947,0-1.875,0.102-2.773,0.277v16.391H89.72c0.183-0.898,0.28-1.826,0.28-2.781
	C90,37.887,83.776,31.67,76.106,31.666z M77.819,35.99c0.674,0.123,1.351,0.313,2.012,0.586c0.66,0.27,1.272,0.617,1.839,1.008
	l-5.022,6.688L77.819,35.99z M77.396,45.02l6.684-5.023c0.394,0.57,0.742,1.18,1.016,1.84c0.273,0.658,0.459,1.338,0.582,2.012
	L77.396,45.02z"/>
<polygon points="28.333,20 26.667,10 40,10 38.333,20 "/>
<path d="M56.667,43.334c0-5.521-4.479-10-10-10h-5.834c-1.602-3.08-2.5-6.459-2.5-10h-10c0,3.541-0.898,6.92-2.5,10H20
	c-5.521,0-10,4.479-10,10C10,53.75,13.184,63.177,18.333,70c-3.092,3.408-5,8.122-5,13.333C13.333,87.015,16.321,90,20,90h26.667
	c3.685,0,6.666-2.985,6.666-6.667c0-5.211-1.907-9.925-5-13.333C53.483,63.177,56.667,53.75,56.667,43.334z M20,83.333
	c0-3.385,1.162-6.529,3.271-8.851L25,72.578v-4.814l-1.345-1.78c-4.505-5.967-6.988-14.011-6.988-22.649
	C16.667,41.498,18.164,40,20,40h26.667C48.509,40,50,41.498,50,43.334c0,8.636-2.48,16.679-6.985,22.649l-1.348,1.783v4.805
	l1.731,1.908c2.109,2.324,3.269,5.469,3.269,8.854H20z"/>
<path d="M23.333,49.141l3.535,3.535c3.568-3.561,9.362-3.561,12.93,0l3.535-3.535C37.813,43.619,28.854,43.619,23.333,49.141z"/>
<rect x="28.62" y="56.953" transform="matrix(0.7072 -0.7071 0.7071 0.7072 -33.8405 41.6273)" width="9.428" height="9.427"/>
<path d="M60,53.333v3.334C63.21,66.956,65,78.21,65,90h20c0-11.79,1.79-23.044,5-33.333v-3.334H60z M78.516,83.333h-7.024
	C71.055,75.378,69.851,67.568,67.884,60h14.232C80.149,67.568,78.945,75.378,78.516,83.333z"/>
</svg>
