<?xml version="1.0" encoding="utf-8"?>
<!-- Generator: Adobe Illustrator 16.0.0, SVG Export Plug-In . SVG Version: 6.00 Build 0)  -->
<!DOCTYPE svg PUBLIC "-//W3C//DTD SVG 1.0//EN" "http://www.w3.org/TR/2001/REC-SVG-20010904/DTD/svg10.dtd">
<svg version="1.0" id="Layer_1" xmlns="http://www.w3.org/2000/svg" xmlns:xlink="http://www.w3.org/1999/xlink" x="0px" y="0px"
	 width="100px" height="100px" viewBox="0 0 100 100" enable-background="new 0 0 100 100" xml:space="preserve">
<path d="M74.141,61.953L90,56.666L78.376,24.701c-0.941-2.585-3.845-5.41-6.452-6.279l-5.257-1.755
	c-9.209-8.89-24.129-8.89-33.334,0l-5.257,1.755c-2.608,0.869-5.511,3.694-6.452,6.279L10,56.666l15.86,5.287L23.333,73.33
	c1.367,1.236,3.381,1.594,5.16,2.242L25,81.051l6.263,2.281l0.717-5.459c1.178,1.15,2.308,2.396,3.764,2.934
	c0.561,0.205,1.151,0.299,1.76,0.336L35,87.178l6.563,1.154l-0.323-7.344c0.616-0.016,1.223,0,1.807,0.105
	c1.748,0.309,3.438,1.402,5.17,1.936L46.667,90h6.666l-1.549-6.971c1.731-0.533,3.424-1.627,5.172-1.936
	c0.583-0.105,1.188-0.121,1.807-0.105l-0.325,7.344L65,87.178l-2.503-6.035c0.608-0.037,1.201-0.131,1.761-0.336
	c1.458-0.537,2.585-1.783,3.763-2.93l0.717,5.455L75,81.051l-3.493-5.479c1.781-0.648,3.789-1.006,5.16-2.242L74.141,61.953z
	 M60.801,20.489c-2.715,3.945-6.396,7.119-10.801,9.202c-4.401-2.083-8.087-5.257-10.8-9.202
	C45.469,15.482,54.531,15.482,60.801,20.489z M62.854,73.596c-0.279,0.277-0.664,0.658-0.934,0.893
	c-0.358-0.004-0.898-0.039-1.293-0.068c-1.338-0.098-3.004-0.215-4.83,0.107c-1.836,0.326-3.363,1.01-4.594,1.559
	C50.84,76.25,50.339,76.477,50,76.602c-0.339-0.125-0.84-0.352-1.204-0.516c-1.228-0.549-2.754-1.232-4.592-1.559
	c-1.828-0.326-3.496-0.205-4.832-0.107c-0.393,0.025-0.934,0.064-1.293,0.068c-0.27-0.238-0.656-0.619-0.934-0.895
	c-0.941-0.936-2.113-2.098-3.682-3.037c-0.822-0.498-1.646-0.867-2.428-1.162l5.471-24.613L30,43.333L27.315,55.41l-8.711-2.9
	l9.285-25.527c0.264-0.697,1.594-1.992,2.296-2.236l3.122-1.042c3.305,5.029,7.887,9.063,13.359,11.755v11.207h6.666V35.459
	c5.476-2.695,10.056-6.726,13.359-11.755l3.122,1.038c0.7,0.248,2.031,1.547,2.295,2.236l9.284,25.531l-8.711,2.9L70,43.333
	l-6.507,1.448l5.469,24.613c-0.778,0.295-1.599,0.664-2.419,1.158C64.968,71.496,63.796,72.662,62.854,73.596z"/>
</svg>
