<?xml version="1.0" encoding="utf-8"?>
<!-- Generator: Adobe Illustrator 16.0.0, SVG Export Plug-In . SVG Version: 6.00 Build 0)  -->
<!DOCTYPE svg PUBLIC "-//W3C//DTD SVG 1.0//EN" "http://www.w3.org/TR/2001/REC-SVG-20010904/DTD/svg10.dtd">
<svg version="1.0" id="Layer_1" xmlns="http://www.w3.org/2000/svg" xmlns:xlink="http://www.w3.org/1999/xlink" x="0px" y="0px"
	 width="100px" height="100px" viewBox="0 0 100 100" enable-background="new 0 0 100 100" xml:space="preserve">
<path d="M73.333,10c-9.205,0-16.666,7.461-16.666,16.666c0,1.143,0.117,2.256,0.332,3.334H70v12.998
	c1.074,0.218,2.188,0.335,3.333,0.335C82.532,43.333,90,35.869,90,26.666C90,17.461,82.532,10,73.333,10z M61.855,24.619
	c0.149-0.811,0.371-1.625,0.696-2.419c0.326-0.794,0.749-1.523,1.218-2.2l8.021,6.028L61.855,24.619z M66.667,17.105
	c0.677-0.472,1.406-0.889,2.2-1.217c0.794-0.329,1.608-0.551,2.415-0.693l1.413,9.932L66.667,17.105z M75.378,15.191
	c0.813,0.146,1.627,0.368,2.415,0.697c0.794,0.328,1.53,0.745,2.207,1.214l-6.028,8.024L75.378,15.191z M77.8,37.444
	c-0.795,0.329-1.608,0.55-2.422,0.693l-1.406-9.932L80,36.227C79.316,36.699,78.587,37.115,77.8,37.444z M84.108,31.133
	c-0.326,0.794-0.742,1.523-1.218,2.2l-8.021-6.028l9.935,1.409C84.661,29.524,84.44,30.338,84.108,31.133z M74.87,26.028L82.891,20
	c0.476,0.677,0.892,1.406,1.218,2.2c0.332,0.794,0.553,1.608,0.696,2.422L74.87,26.028z"/>
<path d="M10,33.333v10c0,5.521,4.478,9.999,10.002,9.999c1.934,5.105,5.674,9.385,10.742,11.68c1.399,0.633,2.826,1.059,4.258,1.326
	v16.994l-11.668,3.334V90h29.999v-3.334l-11.665-3.334V66.334c1.462-0.273,2.893-0.703,4.256-1.318
	c4.688-2.105,8.646-6.156,10.743-11.684c5.521,0,10-4.479,10-9.999v-10H10z M60,43.333c0,1.836-1.497,3.333-3.333,3.333h-4.604
	l-1.634,4.303c-1.387,3.662-3.959,6.492-7.238,7.967C41.626,59.641,39.995,60,38.338,60c-1.656,0-3.291-0.359-4.859-1.064
	c-3.288-1.492-5.866-4.32-7.246-7.967l-1.628-4.303h-4.603c-1.84,0-3.334-1.497-3.334-3.333V40H60V43.333z"/>
</svg>
