<?xml version="1.0" encoding="utf-8"?>
<!-- Generator: Adobe Illustrator 16.0.0, SVG Export Plug-In . SVG Version: 6.00 Build 0)  -->
<!DOCTYPE svg PUBLIC "-//W3C//DTD SVG 1.0//EN" "http://www.w3.org/TR/2001/REC-SVG-20010904/DTD/svg10.dtd">
<svg version="1.0" id="Layer_1" xmlns="http://www.w3.org/2000/svg" xmlns:xlink="http://www.w3.org/1999/xlink" x="0px" y="0px"
	 width="100px" height="100px" viewBox="0 0 100 100" enable-background="new 0 0 100 100" xml:space="preserve">
<rect x="26.667" y="10" width="6.667" height="80"/>
<rect x="10" y="10" width="6.666" height="80"/>
<rect x="83.332" y="10" width="6.668" height="80"/>
<rect x="66.666" y="10" width="6.666" height="80"/>
<path d="M40,55c0,4.141,4.473,7.5,10,7.5c5.523,0,10-3.359,10-7.5h1.666c0,6.445-5.225,11.668-11.666,11.668
	c-6.445,0-11.667-5.223-11.667-11.668H40z"/>
<path d="M46.667,33.334V35c1.953,0.811,2.881,3.047,2.074,5c-0.707-1.699-2.653-2.506-4.355-1.803c-0.002,0-2.719,1.123-2.719,1.123
	v3.18H42.5l0.833-1.666L45,41.667c0,2.741,1.07,5.149,2.701,6.667H45V50h3.333v3.334H50v-3.627C50.533,49.881,51.086,50,51.666,50
	v3.334H57.5L53.332,45l5,3.334H60v-1.667C60,39.307,54.033,33.334,46.667,33.334z"/>
<path d="M46.667,55c-0.215,0-0.426-0.08-0.589-0.244l-3.333-3.332c-0.156-0.156-0.244-0.369-0.244-0.59V49.06l-1.205,0.802
	c-0.259,0.172-0.584,0.188-0.855,0.041C40.169,49.756,40,49.477,40,49.167v-5c0-0.459,0.372-0.833,0.833-0.833
	c0.46,0,0.833,0.374,0.833,0.833v3.444l1.205-0.805c0.257-0.169,0.584-0.188,0.855-0.039c0.271,0.144,0.439,0.427,0.439,0.732v2.988
	l3.09,3.09c0.325,0.326,0.325,0.854,0,1.178C47.093,54.92,46.881,55,46.667,55z"/>
<path d="M57.5,57.303l-0.789-1.469c-3.645,1.953-9.784,1.953-13.421,0L42.5,57.303c1.854,0.998,4.234,1.523,6.666,1.623v1.908h1.666
	v-1.908C53.262,58.822,55.645,58.299,57.5,57.303z"/>
</svg>
