<?xml version="1.0" encoding="utf-8"?>
<!-- Generator: Adobe Illustrator 16.0.0, SVG Export Plug-In . SVG Version: 6.00 Build 0)  -->
<!DOCTYPE svg PUBLIC "-//W3C//DTD SVG 1.0//EN" "http://www.w3.org/TR/2001/REC-SVG-20010904/DTD/svg10.dtd">
<svg version="1.0" id="Layer_1" xmlns="http://www.w3.org/2000/svg" xmlns:xlink="http://www.w3.org/1999/xlink" x="0px" y="0px"
	 width="100px" height="100px" viewBox="0 0 100 100" enable-background="new 0 0 100 100" xml:space="preserve">
<polygon points="33.986,38.496 26.69,44.287 34.24,47.813 "/>
<path d="M33.966,32.012c0.105-2.49-2.509-4.635-5.829-4.778c-3.322-0.149-6.111,1.765-6.219,4.251
	c-0.113,2.494,2.502,4.636,5.82,4.779C31.061,36.413,33.852,34.506,33.966,32.012z"/>
<path d="M89.688,54.033c-2.24-12.686-15.811-20.901-30.318-18.346c-4.135,0.729-7.874,2.275-11.088,4.375
	c-0.064-1.439-0.699-3.012-1.904-4.323c-2.248-2.458-5.564-3.076-7.406-1.394c-1.838,1.687-1.511,5.049,0.738,7.504
	c1.086,1.185,2.424,1.934,3.727,2.21c-2.558,2.683-4.45,5.82-5.534,9.192l-4.294,5.296L18.871,51.68l1.754-9.049l-1.327-2.194
	c-2.967-4.922-3.454-10.358-1.325-14.922c3.884-8.327,15.174-11.314,25.17-6.653c5.924,2.764,10.061,7.607,11.659,12.825
	c1.214-0.352,2.432-0.7,3.708-0.925c0.95-0.166,1.895-0.286,2.838-0.374C59.353,23.162,53.9,16.521,45.961,12.82
	c-13.352-6.225-28.584-1.797-34.029,9.875c-3.188,6.843-2.29,14.639,1.656,21.188l-1.615,8.365c-0.35,1.801,0.726,3.903,2.384,4.682
	l18.128,8.45c1.589,0.742,3.745,0.264,4.939-1.029c1.604,6.921,6.6,12.396,13.247,15.346l3.474,7.782
	c0.745,1.674,2.835,2.783,4.639,2.465l19.7-3.474c1.8-0.319,3.389-2.073,3.516-3.903l0.596-8.499
	C88.105,68.766,90.996,61.465,89.688,54.033z M77.976,69.264l-1.85,1.777l-0.647,9.189L59.47,83.053l-3.753-8.414L53.373,73.6
	c-5.254-2.327-8.771-6.504-9.645-11.464c-1.596-9.047,5.94-17.966,16.799-19.883c10.866-1.914,20.999,3.89,22.595,12.939
	C83.994,60.146,82.116,65.276,77.976,69.264z"/>
<polygon points="64.291,63.587 61.635,72.52 69.844,71.07 "/>
<path d="M72.861,54.219c-3.255-0.72-6.328,0.677-6.871,3.108c-0.537,2.436,1.663,5.004,4.911,5.723
	c3.242,0.723,6.328-0.674,6.869-3.108C78.301,57.51,76.104,54.938,72.861,54.219z"/>
<path d="M60.554,58.288c-1.345-2.1-4.714-2.36-7.517-0.573c-2.809,1.784-3.993,4.947-2.652,7.051
	c1.341,2.105,4.707,2.366,7.51,0.576C60.697,63.558,61.889,60.394,60.554,58.288z"/>
</svg>
