<?xml version="1.0" encoding="utf-8"?>
<!-- Generator: Adobe Illustrator 16.0.0, SVG Export Plug-In . SVG Version: 6.00 Build 0)  -->
<!DOCTYPE svg PUBLIC "-//W3C//DTD SVG 1.0//EN" "http://www.w3.org/TR/2001/REC-SVG-20010904/DTD/svg10.dtd">
<svg version="1.0" id="Layer_1" xmlns="http://www.w3.org/2000/svg" xmlns:xlink="http://www.w3.org/1999/xlink" x="0px" y="0px"
	 width="100px" height="100px" viewBox="0 0 100 100" enable-background="new 0 0 100 100" xml:space="preserve">
<path d="M53.193,10.515L27.673,24.827l-14.095,6.576c-0.832-0.703-1.738-1.029-2.469-0.688c-1.249,0.583-1.48,2.744-0.507,4.831
	s2.78,3.304,4.026,2.722c0.732-0.342,1.064-1.247,1.063-2.334l14.094-6.572l27.37-10.352c2.142-0.808,3.105-3.171,2.139-5.248
	l-0.707-1.51C57.62,10.176,55.192,9.392,53.193,10.515z"/>
<path d="M88.435,26.097L71.667,20L70,10h-3.333l-7.855,23.688C57.63,37.161,53.665,40,50,40H26.667c-5.5,0-10.741,4.44-11.644,9.863
	L10,80l4.932,0.823l2.36-14.16L21.667,90h5V73.333h1.667L31.667,90h5V73.333H55V90h5l3.333-16.667H65V90h5l6.667-36.667
	l-2.025-10.13c-0.719-3.594,1.635-7.122,5.229-7.842l8.496-1.699C89.265,33.479,90,32.585,90,31.667v-3.334
	C90,27.419,89.294,26.413,88.435,26.097z M21.599,50.96c0.368-2.207,2.83-4.293,5.068-4.293H50c6.521,0,13.021-4.655,15.124-10.83
	l0.143-0.427l3.711,1.348c-1.021,2.37-1.419,5.032-0.872,7.754l1.774,8.88l-0.625,3.438L65,53.991l-5,3.333l-5-3.333l-5,3.333
	l-5-3.333l-5,3.333l-5-3.333l-5,3.333l-5-3.333l-2.935,1.956l-0.688-3.665L21.599,50.96z M24.076,66.667l-1.01-5.378L25,60l5,3.333
	L35,60l5,3.333L45,60l5,3.333L55,60l5,3.333L65,60l3.281,2.188l-0.813,4.479H24.076z M71.667,28.333
	c-0.918,0-1.667-0.745-1.667-1.666C70,25.745,70.749,25,71.667,25s1.666,0.745,1.666,1.667
	C73.333,27.588,72.585,28.333,71.667,28.333z"/>
<path d="M42.084,51.67c0,1.149-0.932,2.08-2.084,2.08c-1.148,0-2.083-0.931-2.083-2.08c0-1.155,0.935-2.087,2.083-2.087
	C41.152,49.583,42.084,50.515,42.084,51.67z"/>
<path d="M52.083,51.67c0,1.149-0.931,2.08-2.083,2.08c-1.149,0-2.083-0.931-2.083-2.08c0-1.155,0.934-2.087,2.083-2.087
	C51.152,49.583,52.083,50.515,52.083,51.67z"/>
<path d="M62.083,51.67c0,1.149-0.931,2.08-2.083,2.08c-1.146,0-2.083-0.931-2.083-2.08c0-1.155,0.938-2.087,2.083-2.087
	C61.152,49.583,62.083,50.515,62.083,51.67z"/>
<path d="M32.084,51.67c0,1.149-0.932,2.08-2.084,2.08c-1.148,0-2.083-0.931-2.083-2.08c0-1.155,0.935-2.087,2.083-2.087
	C31.152,49.583,32.084,50.515,32.084,51.67z"/>
</svg>
