<?xml version="1.0" encoding="utf-8"?>
<!-- Generator: Adobe Illustrator 16.0.0, SVG Export Plug-In . SVG Version: 6.00 Build 0)  -->
<!DOCTYPE svg PUBLIC "-//W3C//DTD SVG 1.0//EN" "http://www.w3.org/TR/2001/REC-SVG-20010904/DTD/svg10.dtd">
<svg version="1.0" id="Layer_1" xmlns="http://www.w3.org/2000/svg" xmlns:xlink="http://www.w3.org/1999/xlink" x="0px" y="0px"
	 width="100px" height="100px" viewBox="0 0 100 100" enable-background="new 0 0 100 100" xml:space="preserve">
<path d="M50,10c-22.09,0-40,14.925-40,33.337c0,11.314,6.783,21.299,17.133,27.324L30,85c11.047,6.667,28.955,6.667,40,0
	l2.868-14.339C83.216,64.639,90,54.655,90,43.337C90,24.925,72.097,10,50,10z M69.515,64.899l-2.594,1.51l-2.836,14.164
	c-1.741,0.774-3.694,1.37-5.752,1.829V75h-5v8.174c-1.1,0.091-2.21,0.159-3.333,0.159s-2.232-0.068-3.334-0.159V75h-5v7.402
	c-2.055-0.459-4.014-1.055-5.753-1.829l-2.832-14.164l-2.595-1.51c-8.654-5.039-13.82-13.1-13.82-21.563
	c0-14.707,14.953-26.67,33.334-26.67c18.379,0,33.333,11.963,33.333,26.67C83.333,51.804,78.167,59.863,69.515,64.899z"/>
<circle cx="34.166" cy="46.667" r="5"/>
<circle cx="34.166" cy="35.833" r="2.5"/>
<circle cx="34.166" cy="57.5" r="2.5"/>
<circle cx="23.334" cy="46.667" r="2.5"/>
<circle cx="45" cy="46.667" r="2.5"/>
<circle cx="26.508" cy="39.007" r="2.5"/>
<circle cx="41.826" cy="54.326" r="2.5"/>
<circle cx="26.508" cy="54.326" r="2.5"/>
<circle cx="41.826" cy="39.007" r="2.5"/>
<circle cx="65.833" cy="46.667" r="5"/>
<circle cx="65.833" cy="35.833" r="2.5"/>
<circle cx="65.833" cy="57.5" r="2.5"/>
<circle cx="55" cy="46.667" r="2.5"/>
<circle cx="76.667" cy="46.667" r="2.5"/>
<circle cx="58.174" cy="39.007" r="2.5"/>
<circle cx="73.493" cy="54.326" r="2.5"/>
<circle cx="58.174" cy="54.326" r="2.5"/>
<circle cx="73.493" cy="39.007" r="2.5"/>
<polygon points="50,53.333 44.166,63.333 55.833,63.333 "/>
<polygon points="63.333,30 68.333,26.667 63.333,23.333 58.333,26.667 "/>
<polygon points="50,73.333 55,70 50,66.667 45,70 "/>
<polygon points="36.666,30 41.666,26.667 36.666,23.333 31.666,26.667 "/>
<circle cx="60.417" cy="70" r="2.083"/>
<circle cx="39.583" cy="70" r="2.083"/>
<polygon points="52.61,26.667 55,21.667 50,24.056 45,21.667 47.389,26.667 45,31.667 50,29.28 55,31.667 "/>
</svg>
