<?xml version="1.0" encoding="utf-8"?>
<!-- Generator: Adobe Illustrator 16.0.0, SVG Export Plug-In . SVG Version: 6.00 Build 0)  -->
<!DOCTYPE svg PUBLIC "-//W3C//DTD SVG 1.0//EN" "http://www.w3.org/TR/2001/REC-SVG-20010904/DTD/svg10.dtd">
<svg version="1.0" id="Layer_1" xmlns="http://www.w3.org/2000/svg" xmlns:xlink="http://www.w3.org/1999/xlink" x="0px" y="0px"
	 width="100px" height="100px" viewBox="0 0 100 100" enable-background="new 0 0 100 100" xml:space="preserve">
<path d="M75.833,30c-4.141,0-7.5,3.356-7.5,7.5v10.833h-5v-25C63.333,15.97,57.366,10,50.001,10s-13.334,5.97-13.334,13.333v15h-5
	V27.5c0-4.144-3.359-7.5-7.5-7.5c-4.144,0-7.5,3.356-7.5,7.5v10.837c0,8.281,6.716,14.996,15,14.996h5V70h-10v5l6.667,1.667
	l2.524,10.101C36.303,88.545,38.168,90,40.001,90h20c1.832,0,3.697-1.455,4.141-3.232l2.525-10.101L73.333,75v-5h-10v-6.667h5
	c8.285,0,15-6.715,15-14.996V37.5C83.333,33.356,79.978,30,75.833,30z M31.667,48.333c-5.523,0-10-4.476-10-9.996V27.5
	c0-1.38,1.12-2.5,2.5-2.5c1.381,0,2.5,1.12,2.5,2.5v10.837c0,2.76,2.24,4.996,5,4.996h5v5H31.667z M58.128,83.333H41.872
	l-1.666-6.666h19.59L58.128,83.333z M78.333,48.337c0,5.521-4.475,9.996-10,9.996H48.334v5h8.333V70H43.334V23.333
	c0-3.682,2.985-6.666,6.667-6.666s6.666,2.984,6.666,6.666v25h-5v5h16.666c2.762,0,5-2.236,5-4.996V37.5c0-1.38,1.121-2.5,2.5-2.5
	c1.381,0,2.5,1.12,2.5,2.5V48.337z"/>
</svg>
