<?xml version="1.0" encoding="utf-8"?>
<!-- Generator: Adobe Illustrator 16.0.0, SVG Export Plug-In . SVG Version: 6.00 Build 0)  -->
<!DOCTYPE svg PUBLIC "-//W3C//DTD SVG 1.0//EN" "http://www.w3.org/TR/2001/REC-SVG-20010904/DTD/svg10.dtd">
<svg version="1.0" id="Layer_1" xmlns="http://www.w3.org/2000/svg" xmlns:xlink="http://www.w3.org/1999/xlink" x="0px" y="0px"
	 width="100px" height="100px" viewBox="0 0 100 100" enable-background="new 0 0 100 100" xml:space="preserve">
<path d="M68.102,59.518c-0.11-0.713-1.38-1.067-1.715-1.725c-0.322-0.632,0.14-1.872-0.391-2.402
	c-0.527-0.531-1.768-0.068-2.402-0.391c-0.654-0.336-1.013-1.605-1.726-1.716c-0.72-0.11-1.455,0.983-2.175,1.097
	c-0.713,0.114-1.751-0.706-2.408-0.371c-0.632,0.322-0.58,1.638-1.107,2.168c-0.53,0.527-1.846,0.476-2.171,1.11
	c-0.332,0.654,0.488,1.696,0.374,2.405c-0.113,0.72-1.21,1.455-1.097,2.175c0.111,0.713,1.38,1.071,1.712,1.725
	c0.326,0.635-0.137,1.875,0.395,2.402c0.527,0.531,1.768,0.068,2.402,0.391c0.654,0.336,1.012,1.605,1.725,1.716
	c0.72,0.114,1.455-0.983,2.175-1.097c0.71-0.114,1.751,0.706,2.409,0.374c0.631-0.325,0.579-1.641,1.106-2.171
	c0.53-0.527,1.846-0.476,2.171-1.107c0.332-0.657-0.488-1.698-0.374-2.408C67.119,60.973,68.216,60.237,68.102,59.518z M63.05,63.05
	c-1.302,1.302-3.415,1.302-4.714,0c-1.302-1.299-1.302-3.411,0-4.714c1.303-1.302,3.415-1.299,4.714,0
	C64.352,59.639,64.352,61.748,63.05,63.05z"/>
<polygon points="78.372,64.228 74.837,70.12 70.12,74.837 64.229,78.372 61.871,76.015 76.016,61.871 "/>
<path d="M84.264,51.266c-4.248-4.248-9.876-6.143-15.107-5.638c-0.547-2.334-1.692-4.561-3.516-6.38
	c-5.208-5.212-13.648-5.209-18.853,0l-1.415,1.412L24.871,20.156c0.973-0.974,0.973-2.563,0-3.535l-5.893-5.893
	c-0.971-0.973-2.563-0.97-3.535,0l-4.713,4.714c-0.974,0.974-0.974,2.565,0,3.535l5.892,5.892c0.972,0.974,2.562,0.974,3.535,0
	L40.66,45.374l-1.416,1.416c-5.207,5.205-5.209,13.646,0,18.854c1.822,1.823,4.049,2.969,6.389,3.516
	c-0.508,5.234,1.387,10.856,5.634,15.104c7.157,7.161,18.238,7.688,24.749,1.179l9.427-9.428
	C91.953,69.505,91.426,58.428,84.264,51.266z M80.729,71.298l-9.43,9.431c-3.896,3.899-10.771,3.369-15.319-1.179
	c-2.659-2.659-4.046-6.302-3.714-9.749l0.3-3.093l-3.613-3.616l-1.803-0.423c-1.261-0.296-2.334-0.879-3.193-1.738
	c-2.598-2.598-2.598-6.829,0-9.427l1.416-1.416l4.716,4.713l4.712-4.713l-4.715-4.714l1.416-1.413c2.597-2.601,6.829-2.601,9.427,0
	c0.859,0.856,1.445,1.931,1.738,3.19l0.42,1.794l3.619,3.616l3.09-0.296c3.45-0.336,7.096,1.058,9.756,3.714
	C84.098,60.527,84.629,67.401,80.729,71.298z"/>
</svg>
