<?xml version="1.0" encoding="utf-8"?>
<!-- Generator: Adobe Illustrator 16.0.0, SVG Export Plug-In . SVG Version: 6.00 Build 0)  -->
<!DOCTYPE svg PUBLIC "-//W3C//DTD SVG 1.0//EN" "http://www.w3.org/TR/2001/REC-SVG-20010904/DTD/svg10.dtd">
<svg version="1.0" id="Layer_1" xmlns="http://www.w3.org/2000/svg" xmlns:xlink="http://www.w3.org/1999/xlink" x="0px" y="0px"
	 width="100px" height="100px" viewBox="0 0 100 100" enable-background="new 0 0 100 100" xml:space="preserve">
<path d="M37.291,62.918c-3.107,0-5.625-2.52-5.625-5.625s2.518-5.625,5.625-5.625h3.75c3.109,0,5.625,1.68,5.625,3.75
	C46.666,59.559,42.475,62.918,37.291,62.918z"/>
<path d="M62.708,62.918c3.109,0,5.625-2.52,5.625-5.625s-2.516-5.625-5.625-5.625h-3.75c-3.108,0-5.625,1.68-5.625,3.75
	C53.333,59.559,57.526,62.918,62.708,62.918z"/>
<path d="M53.333,68.334C53.333,69.256,51.839,70,50,70c-1.84,0-3.334-0.744-3.334-1.666C46.666,63.73,48.16,60,50,60
	C51.839,60,53.333,63.73,53.333,68.334z"/>
<polygon points="55,36.667 51.667,36.667 51.667,33.333 48.334,33.333 48.334,36.667 45,36.667 45,40 48.334,40 48.334,46.667 
	51.667,46.667 51.667,40 55,40 "/>
<circle cx="40" cy="68.334" r="2.084"/>
<circle cx="30" cy="65" r="2.084"/>
<path d="M32.084,50c0,1.151-0.934,2.084-2.084,2.084S27.916,51.15,27.916,50c0-1.148,0.934-2.083,2.084-2.083
	S32.084,48.851,32.084,50z"/>
<circle cx="38.333" cy="46.667" r="2.083"/>
<circle cx="61.667" cy="46.667" r="2.083"/>
<circle cx="70" cy="65" r="2.083"/>
<path d="M72.083,50c0,1.151-0.931,2.084-2.083,2.084S67.917,51.15,67.917,50c0-1.148,0.931-2.083,2.083-2.083
	S72.083,48.851,72.083,50z"/>
<circle cx="60" cy="68.334" r="2.083"/>
<polygon points="50,80 55,76.668 50,73.334 45,76.668 "/>
<polygon points="68.73,43.832 70.495,36.168 62.839,37.936 "/>
<polygon points="31.27,43.832 29.506,36.168 37.162,37.936 "/>
<path d="M82.754,37.25c0.364,1.976,0.579,4.004,0.579,6.084c0,5.225-1.233,10.151-3.375,14.547c2.076,2.348,3.375,5.4,3.375,8.787
	c0,5.52-4.476,10-10,10H70c-1.833,0-3.698,1.455-4.141,3.232l-1.719,6.867C63.698,88.545,61.833,90,60,90H50H40
	c-1.832,0-3.696-1.455-4.143-3.232L34.143,79.9c-0.445-1.777-2.311-3.232-4.143-3.232h-3.334c-5.523,0-10-4.48-10-10
	c0-3.387,1.299-6.439,3.377-8.787c-2.143-4.396-3.377-9.323-3.377-14.547c0-2.08,0.217-4.108,0.582-6.084l6.086,6.084
	c0,4.036,0.909,7.946,2.701,11.627l1.949,4.004l-2.95,3.334c-0.774,0.879-1.7,2.348-1.7,4.369c0,1.838,1.495,3.332,3.332,3.332H30
	c4.868,0,9.429,3.563,10.61,8.285l1.261,5.049h16.257l1.264-5.045C60.566,73.564,65.127,70,70,70h3.333
	c1.84,0,3.334-1.494,3.334-3.332c0-2.021-0.925-3.49-1.703-4.369l-2.949-3.334l1.95-4.004c1.794-3.682,2.702-7.591,2.702-11.627
	L82.754,37.25z"/>
<path d="M57.031,19.157c2.39-2.585,2.845-6.094,0.957-7.985C56.106,9.284,52.585,9.733,50,12.123
	c-2.584-2.39-6.104-2.839-7.99-0.951c-1.889,1.892-1.432,5.4,0.957,7.985c-2.395,2.585-2.846,6.097-0.949,7.988
	c1.885,1.892,5.398,1.438,7.982-0.954c2.585,2.393,6.097,2.846,7.981,0.954C59.88,25.253,59.427,21.742,57.031,19.157z M50,22.49
	c-1.842,0-3.334-1.49-3.334-3.333s1.492-3.333,3.334-3.333c1.843,0,3.333,1.49,3.333,3.333S51.843,22.49,50,22.49z"/>
<path d="M33.891,21.572c1.217-3.301,0.295-6.719-2.172-7.74c-2.465-1.025-5.541,0.738-7.016,3.936
	c-3.303-1.218-6.727-0.29-7.745,2.178c-1.024,2.471,0.742,5.537,3.938,7.012c-1.223,3.304-0.296,6.722,2.182,7.744
	c2.465,1.025,5.537-0.736,7.008-3.939c3.307,1.225,6.725,0.297,7.74-2.171C38.857,26.117,37.094,23.043,33.891,21.572z
	 M28.668,27.347c-1.7,0.703-3.648-0.104-4.354-1.807c-0.706-1.703,0.102-3.649,1.804-4.355c1.702-0.703,3.651,0.104,4.355,1.807
	C31.178,24.694,30.371,26.64,28.668,27.347z"/>
<path d="M83.044,19.945c-1.02-2.468-4.443-3.396-7.748-2.178c-1.475-3.197-4.551-4.961-7.015-3.936
	c-2.468,1.021-3.389,4.439-2.171,7.74c-3.203,1.472-4.968,4.545-3.936,7.019c1.016,2.468,4.434,3.396,7.74,2.171
	c1.472,3.203,4.541,4.965,7.009,3.939c2.478-1.022,3.401-4.44,2.181-7.744C82.302,25.482,84.065,22.416,83.044,19.945z
	 M75.687,25.541c-0.706,1.702-2.652,2.51-4.355,1.807c-1.702-0.707-2.51-2.653-1.803-4.355c0.703-1.703,2.652-2.51,4.355-1.807
	C75.586,21.891,76.394,23.837,75.687,25.541z"/>
</svg>
