<?xml version="1.0" encoding="utf-8"?>
<!-- Generator: Adobe Illustrator 16.0.0, SVG Export Plug-In . SVG Version: 6.00 Build 0)  -->
<!DOCTYPE svg PUBLIC "-//W3C//DTD SVG 1.0//EN" "http://www.w3.org/TR/2001/REC-SVG-20010904/DTD/svg10.dtd">
<svg version="1.0" id="Layer_1" xmlns="http://www.w3.org/2000/svg" xmlns:xlink="http://www.w3.org/1999/xlink" x="0px" y="0px"
	 width="100px" height="100px" viewBox="0 0 100 100" enable-background="new 0 0 100 100" xml:space="preserve">
<polygon points="50.001,65 45.834,71.667 54.167,71.667 "/>
<path d="M61.979,57.347c-3.516-1.458-7.252-0.494-8.346,2.136c-1.088,2.637,0.879,5.96,4.387,7.412
	c3.51,1.455,7.26,0.495,8.348-2.136C67.454,62.126,65.489,58.799,61.979,57.347z"/>
<path d="M46.368,59.482c-1.094-2.63-4.834-3.591-8.34-2.136c-3.516,1.452-5.482,4.775-4.392,7.406
	c1.091,2.637,4.827,3.597,8.34,2.142C45.485,65.442,47.455,62.116,46.368,59.482z"/>
<path d="M65.001,36.029v7.258c6.988,3.348,11.666,8.897,11.666,15.046c0,5.485-3.861,10.859-10.326,14.379l-2.57,1.399l-2.305,9.222
	h-3.965v-6.666h-5v6.666h-5v-6.666h-5v6.666h-3.962l-2.305-9.229l-2.575-1.396c-6.465-3.516-10.325-8.89-10.325-14.375
	c0-7.52,7.002-14.138,16.667-16.921V50h6.666V28.334h6.666V50h6.668V25c0-1.832-1.502-3.334-3.334-3.334H53.03
	c0.945-0.84,1.553-2.051,1.553-3.414c0-3.223-1.754-6.139-4.582-8.252c0,1.49-0.762,2.988-2.292,4.127
	c-1.53,1.133-2.292,2.631-2.292,4.125c0,1.363,0.605,2.574,1.553,3.414h-3.636c-1.833,0-3.333,1.502-3.333,3.334v9.508
	c-13.518,3.188-23.334,12.635-23.334,23.825c0,8.33,5.456,15.69,13.809,20.231l2.051,8.203C32.97,88.545,34.835,90,36.667,90h26.666
	c1.836,0,3.699-1.455,4.141-3.232l2.051-8.2c8.354-4.544,13.809-11.9,13.809-20.234C83.333,48.574,75.866,40.15,65.001,36.029z"/>
</svg>
