<?xml version="1.0" encoding="utf-8"?>
<!-- Generator: Adobe Illustrator 16.0.0, SVG Export Plug-In . SVG Version: 6.00 Build 0)  -->
<!DOCTYPE svg PUBLIC "-//W3C//DTD SVG 1.0//EN" "http://www.w3.org/TR/2001/REC-SVG-20010904/DTD/svg10.dtd">
<svg version="1.0" id="Layer_1" xmlns="http://www.w3.org/2000/svg" xmlns:xlink="http://www.w3.org/1999/xlink" x="0px" y="0px"
	 width="100px" height="100px" viewBox="0 0 100 100" enable-background="new 0 0 100 100" xml:space="preserve">
<polygon points="41.666,16.666 40,10 53.333,10 51.667,16.666 "/>
<path d="M63.069,38.545l-8.477-4.623c-1.607-0.879-2.926-3.098-2.926-4.932V20H41.666v8.99c0,1.834-1.316,4.053-2.926,4.932
	l-8.477,4.623c-4.829,2.633-7.837,9.189-6.685,14.567l3.604,16.822l-14.328-5.934c-0.611,0.914-1.145,1.897-1.582,2.952
	c-3.524,8.496,0.519,18.255,9.018,21.774c8.503,3.521,18.254-0.524,21.775-9.023c0.438-1.052,0.754-2.126,0.973-3.203l-8.373-3.467
	l-4.568-21.318c-0.531-2.478,1.133-6.104,3.357-7.317l8.479-4.623c1.951-1.068,3.6-2.77,4.732-4.762
	c1.133,1.988,2.78,3.691,4.73,4.758l8.479,4.627c2.214,1.207,3.864,4.791,3.363,7.269h6.683
	C70.325,46.607,67.474,40.947,63.069,38.545z M15.005,73.337c-0.003-0.859,0.104-1.699,0.28-2.507l9.719,2.5l-9.721,2.503
	C15.109,75.026,15.004,74.189,15.005,73.337z M18.418,81.582c-0.605-0.608-1.121-1.276-1.567-1.973l8.642-5.101l-5.105,8.639
	C19.695,82.702,19.025,82.19,18.418,81.582z M26.668,85c-0.857-0.003-1.695-0.107-2.502-0.28L26.67,75l2.502,9.714
	C28.361,84.893,27.527,84.997,26.668,85z M36.489,79.616c-0.448,0.689-0.964,1.357-1.573,1.963
	c-0.602,0.608-1.271,1.123-1.962,1.572l-5.107-8.637L36.489,79.616z"/>
<path d="M56.667,56.667v6.666l2.594,6.921l-2.799,13.079h-9.796V90h11.85c1.833,0,3.649-1.468,4.033-3.259l1.052-4.915L66.667,90H80
	l10-26.667v-6.666H56.667z M75.381,83.333h-4.095l-7.5-20h19.095L75.381,83.333z"/>
<ellipse cx="46.667" cy="50.833" rx="10" ry="5.834"/>
<rect x="43.13" y="63.131" transform="matrix(0.7071 0.7071 -0.7071 0.7071 60.8088 -13.4715)" width="7.071" height="7.071"/>
</svg>
