<?xml version="1.0" encoding="utf-8"?>
<!-- Generator: Adobe Illustrator 16.0.0, SVG Export Plug-In . SVG Version: 6.00 Build 0)  -->
<!DOCTYPE svg PUBLIC "-//W3C//DTD SVG 1.0//EN" "http://www.w3.org/TR/2001/REC-SVG-20010904/DTD/svg10.dtd">
<svg version="1.0" id="Layer_1" xmlns="http://www.w3.org/2000/svg" xmlns:xlink="http://www.w3.org/1999/xlink" x="0px" y="0px"
	 width="100px" height="100px" viewBox="0 0 100 100" enable-background="new 0 0 100 100" xml:space="preserve">
<path d="M83.333,16.666h-6.666V10H70v6.666h-9.167V10h-6.666v6.666h-8.333V10h-6.668v6.666H30V10h-6.666v6.666h-6.668
	c-3.664,0-6.666,3.002-6.666,6.667v59.999C10,86.998,13.002,90,16.666,90h66.667C86.999,90,90,86.998,90,83.332V23.333
	C90,19.668,86.999,16.666,83.333,16.666z M83.333,83.332H16.666V23.333h6.668V30H30v-6.667h9.166V30h6.668v-6.667h8.333V30h6.666
	v-6.667H70V30h6.667v-6.667h6.666V83.332z"/>
<path d="M58.708,49.095c-2.529-1.048-4.936-2.22-7.25-3.438c4.128-7.38,9.453-11.839,12.969-10.381
	c3.525,1.458,4.135,8.379,1.836,16.517C63.763,51.012,61.237,50.143,58.708,49.095z"/>
<path d="M78.333,57.838c-12.825-1.322-29.681-8.305-39.687-16.438l-3.428,3.428c8.508,13.147,27.809,21.14,43.114,17.858V57.838z"/>
<ellipse transform="matrix(0.9239 0.3827 -0.3827 0.9239 27.7995 -7.2325)" cx="32.081" cy="66.267" rx="10.833" ry="7.5"/>
<path d="M56.136,73.525l-10.009-4.148l-1.914,4.619l10.009,4.148c1.27,0.523,2.741-0.086,3.269-1.355
	C58.015,75.52,57.405,74.049,56.136,73.525z"/>
<path d="M73.333,70.998l-3.453-0.484L68.333,67.5l-1.543,3.014l-3.457,0.484l2.5,2.348l-0.586,3.32l3.086-1.566l3.093,1.566
	l-0.593-3.32L73.333,70.998z"/>
<path d="M31.244,44.703l-3.498,0.905l-2.68-2.275l-0.281,3.503l-3.119,1.836l3.328,1.252l0.754,3.418l2.334-2.727l3.584,0.273
	l-1.885-2.943L31.244,44.703z"/>
</svg>
