<?xml version="1.0" encoding="utf-8"?>
<!-- Generator: Adobe Illustrator 16.0.0, SVG Export Plug-In . SVG Version: 6.00 Build 0)  -->
<!DOCTYPE svg PUBLIC "-//W3C//DTD SVG 1.0//EN" "http://www.w3.org/TR/2001/REC-SVG-20010904/DTD/svg10.dtd">
<svg version="1.0" id="Layer_1" xmlns="http://www.w3.org/2000/svg" xmlns:xlink="http://www.w3.org/1999/xlink" x="0px" y="0px"
	 width="100px" height="100px" viewBox="0 0 100 100" enable-background="new 0 0 100 100" xml:space="preserve">
<path d="M14.844,66.14c1.4,1.152,3.002,2.07,4.678,2.874c-3.096-7.653-3.667-16.774-1.816-24.857
	c0.981,1.433,2.119,2.783,3.404,4.023l8.475,8.185V44.583c0-6.628,1.564-12.995,4.514-18.652c1.648,5.026,4.277,9.724,7.781,13.799
	l7.171,8.347l1.568-10.893c0.056-0.381,0.124-0.758,0.202-1.133c0.456,0.576,0.95,1.13,1.481,1.657
	c2.32,2.314,4.326,5.075,6.031,8.076v-8.831c-0.801-0.964-1.624-1.911-2.5-2.787c-2.581-2.568-4.166-6.119-4.166-10.052
	c-3.164,3.262-5.306,7.562-5.997,12.356c-5.343-6.217-8.586-14.283-8.586-23.138c-7.733,7.995-12.5,19.043-12.5,31.25
	c-3.863-3.73-6.25-8.884-6.25-14.583c-6.348,9.368-8.082,22.858-5.365,34.597L14.844,66.14z"/>
<path d="M80,26.666h-0.833c0-3.909,1.582-7.444,4.146-10l-6.487-3.333c-1.709,4.114-2.659,8.62-2.659,13.333h-0.834
	c-5.521,0-10,5.971-10,13.334v6.666c0,16.563-14.358,30.001-32.068,30.001c-7.657,0-14.59-2.546-19.599-6.667L10,71.667
	c9.292,9.277,22.15,15,36.363,15C70.462,86.667,90,68.757,90,46.666V40C90,32.637,85.524,26.666,80,26.666z M73.333,33.333H80
	c1.101,0,3.034,2.236,3.284,5.901c-4.268,0.971-8.968,0.971-13.235,0C70.3,35.569,72.233,33.333,73.333,33.333z M47.428,79.987
	C60.739,74.177,70,61.426,70,46.666v-2.359C72.171,44.746,74.407,45,76.667,45c2.259,0,4.495-0.254,6.666-0.693v2.359
	C83.333,64.727,67.324,79.476,47.428,79.987z"/>
</svg>
