<?xml version="1.0" encoding="utf-8"?>
<!-- Generator: Adobe Illustrator 16.0.0, SVG Export Plug-In . SVG Version: 6.00 Build 0)  -->
<!DOCTYPE svg PUBLIC "-//W3C//DTD SVG 1.0//EN" "http://www.w3.org/TR/2001/REC-SVG-20010904/DTD/svg10.dtd">
<svg version="1.0" id="Layer_1" xmlns="http://www.w3.org/2000/svg" xmlns:xlink="http://www.w3.org/1999/xlink" x="0px" y="0px"
	 width="100px" height="100px" viewBox="0 0 100 100" enable-background="new 0 0 100 100" xml:space="preserve">
<polygon points="50,56.668 44.167,66.668 55.832,66.668 "/>
<path d="M76.666,48.337c0-1.13-2.555-1.836-2.887-2.852c-0.342-1.055,1.299-3.132,0.66-4.011c-0.645-0.885-3.129,0.039-4.014-0.605
	c-0.879-0.641-0.766-3.291-1.816-3.633c-1.02-0.328-2.48,1.872-3.609,1.872c-1.131,0-2.592-2.2-3.611-1.872
	c-1.051,0.342-0.938,2.992-1.813,3.63c-0.885,0.645-3.373-0.276-4.018,0.608c-0.637,0.879,1.004,2.956,0.662,4.008
	c-0.332,1.019-2.889,1.725-2.889,2.854c0,1.126,2.557,1.833,2.889,2.853c0.342,1.055-1.299,3.131-0.662,4.006
	c0.645,0.887,3.129-0.039,4.018,0.605c0.875,0.643,0.762,3.291,1.813,3.631c1.02,0.332,2.48-1.869,3.611-1.869
	c1.129,0,2.59,2.201,3.609,1.869c1.051-0.34,0.938-2.988,1.816-3.627c0.883-0.645,3.369,0.277,4.014-0.609
	c0.639-0.875-1.002-2.951-0.66-4.006C74.111,50.17,76.666,49.463,76.666,48.337z M65,52.5c-2.303,0-4.168-1.865-4.168-4.166
	c0-2.302,1.865-4.167,4.168-4.167c2.301,0,4.166,1.865,4.166,4.167C69.166,50.635,67.301,52.5,65,52.5z"/>
<path d="M46.667,48.337c0-1.13-2.555-1.836-2.887-2.852c-0.342-1.055,1.299-3.132,0.66-4.011c-0.645-0.885-3.128,0.039-4.014-0.605
	c-0.879-0.641-0.765-3.291-1.816-3.633c-1.019-0.328-2.48,1.872-3.609,1.872c-1.13,0-2.592-2.2-3.61-1.872
	c-1.052,0.342-0.938,2.992-1.813,3.63c-0.885,0.645-3.372-0.276-4.017,0.608c-0.638,0.879,1.003,2.956,0.661,4.008
	c-0.332,1.019-2.888,1.725-2.888,2.854c0,1.126,2.556,1.833,2.888,2.853c0.342,1.055-1.299,3.131-0.661,4.006
	c0.645,0.887,3.128-0.039,4.017,0.605c0.876,0.643,0.762,3.291,1.813,3.631c1.019,0.332,2.48-1.869,3.61-1.869
	c1.129,0,2.591,2.201,3.609,1.869c1.052-0.34,0.938-2.988,1.816-3.627c0.883-0.645,3.369,0.277,4.014-0.609
	c0.639-0.875-1.002-2.951-0.66-4.006C44.112,50.17,46.667,49.463,46.667,48.337z M35,52.5c-2.302,0-4.167-1.865-4.167-4.166
	c0-2.302,1.865-4.167,4.167-4.167c2.301,0,4.166,1.865,4.166,4.167C39.167,50.635,37.301,52.5,35,52.5z"/>
<path d="M50,10c-22.09,0-40,14.926-40,33.334c0,11.146,6.586,20.986,16.666,27.037v12.963c0,3.666,3,6.666,6.667,6.666h33.333
	c3.666,0,6.666-3,6.666-6.666V70.371C83.414,64.32,90,54.48,90,43.334C90,24.926,72.096,10,50,10z M72.789,23.926
	c-0.375,0.844-0.709,1.696-1.01,2.523c-0.246,0.684-0.607,1.68-0.93,2.376c-0.736-0.267-1.727-0.732-2.4-1.048
	c-2.686-1.26-5.729-2.686-9.035-2.031c-3.33,0.66-5.605,3.147-7.617,5.345c-0.496,0.544-1.225,1.341-1.796,1.865
	c-0.574-0.524-1.303-1.321-1.797-1.865c-2.012-2.197-4.291-4.688-7.624-5.349c-3.313-0.647-6.353,0.771-9.033,2.031
	c-0.674,0.316-1.662,0.781-2.397,1.049c-0.322-0.697-0.682-1.689-0.928-2.37c-0.301-0.827-0.637-1.683-1.011-2.526
	c5.967-4.485,13.972-7.259,22.79-7.259C58.814,16.667,66.822,19.44,72.789,23.926z M69.902,64.656L66.666,66.6v16.734H62.5V75h-5
	v8.334h-5V75h-5v8.334h-5V75h-5v8.334h-4.167V66.6l-3.235-1.943c-8.535-5.125-13.432-12.895-13.432-21.322
	c0-5.935,2.468-11.406,6.582-15.84c0.991,2.662,1.879,5.488,3.823,6.295c3.446,1.423,8.925-3.854,12.538-3.141
	c3.641,0.723,6.692,7.686,10.391,7.686c3.697,0,6.748-6.963,10.386-7.683c3.613-0.716,9.092,4.563,12.535,3.138
	c1.947-0.804,2.84-3.633,3.828-6.295c4.115,4.434,6.582,9.905,6.582,15.84C83.332,51.762,78.438,59.531,69.902,64.656z"/>
<circle cx="23.333" cy="36.667" r="2.083"/>
<path d="M78.75,36.667c0,1.149-0.932,2.083-2.084,2.083c-1.146,0-2.084-0.934-2.084-2.083s0.938-2.083,2.084-2.083
	C77.818,34.584,78.75,35.518,78.75,36.667z"/>
<rect x="47.644" y="20.977" transform="matrix(-0.707 0.7073 -0.7073 -0.707 101.8513 4.4657)" width="4.713" height="4.713"/>
</svg>
