<?xml version="1.0" encoding="utf-8"?>
<!-- Generator: Adobe Illustrator 16.0.0, SVG Export Plug-In . SVG Version: 6.00 Build 0)  -->
<!DOCTYPE svg PUBLIC "-//W3C//DTD SVG 1.0//EN" "http://www.w3.org/TR/2001/REC-SVG-20010904/DTD/svg10.dtd">
<svg version="1.0" id="Layer_1" xmlns="http://www.w3.org/2000/svg" xmlns:xlink="http://www.w3.org/1999/xlink" x="0px" y="0px"
	 width="100px" height="100px" viewBox="0 0 100 100" enable-background="new 0 0 100 100" xml:space="preserve">
<path d="M80,26.667c0-1.839-1.491-3.333-3.333-3.333c-1.843,0-3.334,1.494-3.334,3.333c0,5.645-3.538,10.452-8.506,12.396
	l1.758-15.811c0.153-1.38,0.023-2.686-0.237-3.941l4.287,0.762l0.638-1.54l-3.281-1.384l3.676-2.015l-0.639-1.54l-4.02,1.172
	l1.338-3.294l-1.54-0.638l-2.614,3.736C62.054,11.797,58.704,10,54.724,10h-9.45c-7.055,0-12.203,5.537-11.865,12.448
	C31.385,21.299,30,19.154,30,16.667c0-1.843-1.49-3.333-3.334-3.333c-1.842,0-3.332,1.49-3.332,3.333c0,1.989,0.467,3.86,1.251,5.56
	l-3.554-0.631l-0.637,1.539l3.281,1.384L20,26.533l0.639,1.543l4.021-1.175l-1.342,3.294l1.54,0.639l2.974-4.255
	c1.758,1.569,3.902,2.702,6.304,3.167l1.511,13.588h-2.313c-3.676,0-6.668-2.988-6.668-6.667c0-1.839-1.49-3.333-3.332-3.333
	c-1.844,0-3.334,1.494-3.334,3.333c0,3.74,1.558,7.112,4.047,9.538L20,47.097v1.667l3.561,0.022l-2.625,3.269l1.179,1.178
	l3.267-2.623l0.024,3.559h1.667l1.146-5.193C29.795,49.633,31.52,50,33.334,50h3.053l0.539,4.852C26.914,57.275,20,62.396,20,68.334
	c0,1.148,0.281,2.262,0.77,3.336L25,90h6.842L29.35,79.197c5.381,2.559,12.639,4.137,20.65,4.137c8.008,0,15.267-1.578,20.651-4.137
	L68.157,90H75l4.231-18.332C79.72,70.596,80,69.482,80,68.334c0-5.941-6.914-11.068-16.927-13.496l0.957-8.578
	c2.894-0.596,5.55-1.836,7.845-3.535L72.93,47.5h1.667l0.022-3.561l3.269,2.623l1.178-1.178l-2.623-3.266L80,42.097V40.43
	l-4.603-1.016C78.269,35.951,80,31.508,80,26.667z M73.333,68.334c0,2.418-8.177,8.334-23.333,8.334s-23.334-5.916-23.334-8.334
	c0-1.645,3.809-4.893,11-6.811L38.608,70h6.708l-2.223-20h3.572C48.509,50,50,48.51,50,46.667c0-1.839-1.491-3.333-3.334-3.333
	h-4.313l-2.313-20.817c-0.18-1.614,0.252-3.099,1.217-4.177c0.965-1.077,2.391-1.673,4.016-1.673h9.45
	c1.624,0,3.05,0.596,4.017,1.673c0.964,1.078,1.396,2.563,1.221,4.177L54.685,70h6.705l0.941-8.477
	C69.521,63.441,73.333,66.689,73.333,68.334z"/>
</svg>
