<?xml version="1.0" encoding="utf-8"?>
<!-- Generator: Adobe Illustrator 16.0.0, SVG Export Plug-In . SVG Version: 6.00 Build 0)  -->
<!DOCTYPE svg PUBLIC "-//W3C//DTD SVG 1.0//EN" "http://www.w3.org/TR/2001/REC-SVG-20010904/DTD/svg10.dtd">
<svg version="1.0" id="Layer_1" xmlns="http://www.w3.org/2000/svg" xmlns:xlink="http://www.w3.org/1999/xlink" x="0px" y="0px"
	 width="100px" height="100px" viewBox="0 0 100 100" enable-background="new 0 0 100 100" xml:space="preserve">
<polygon points="62.259,45.422 67.784,44.992 63.213,41.855 62.784,36.333 59.648,40.898 54.124,41.333 58.692,44.469 
	59.124,49.993 "/>
<rect x="66.406" y="37.228" transform="matrix(0.9659 0.2588 -0.2588 0.9659 12.4166 -16.3161)" width="3.531" height="3.535"/>
<polygon points="55.905,46.08 52.487,45.166 51.575,48.576 54.987,49.494 "/>
<path d="M89.207,82.676L77.032,64.189c7.077-6.583,7.832-19.617,1.243-31.026c-7.363-12.762-21.088-18.618-30.652-13.096
	c-0.703,0.406-1.35,0.879-1.969,1.379C40.894,13.534,33.256,8.881,25.61,10.229C14.73,12.15,7.983,25.46,10.542,39.966
	c2.285,12.979,11.245,22.479,20.9,22.969l2.557,21.983c0.316,2.731,2.793,4.577,5.502,4.099s4.402-3.057,3.768-5.732l-5.116-21.53
	c2.836-1.201,5.29-3.23,7.245-5.867c6.764,9.594,17.267,14.317,25.736,11.71l9.92,19.785c1.23,2.461,4.189,3.347,6.572,1.97
	C90.005,87.979,90.717,84.975,89.207,82.676z M50.957,25.841c3.415-1.972,7.768-1.5,11.922,0.814l-12.8,7.393
	c-0.052-0.346-0.085-0.684-0.144-1.029c-0.318-1.803-0.768-3.541-1.328-5.197C49.278,27.036,50.052,26.363,50.957,25.841z
	 M17.107,38.809c-0.518-2.934-0.568-5.782-0.242-8.418l23.853-4.207c1.207,2.367,2.134,5.063,2.652,7.996
	c0.517,2.932,0.568,5.784,0.242,8.418l-23.853,4.205C18.551,44.435,17.623,41.74,17.107,38.809z M26.768,16.795
	c3.883-0.684,7.811,1.247,10.924,4.844l-19.536,3.443C19.851,20.64,22.882,17.482,26.768,16.795z M33.716,56.188
	c-3.887,0.687-7.815-1.242-10.929-4.841l19.534-3.444C40.625,52.347,37.596,55.501,33.716,56.188z M49.408,49.833
	c-0.179-0.313-0.286-0.634-0.452-0.946c0.935-2.85,1.448-5.984,1.494-9.278l16.826-9.717c1.944,1.809,3.733,4.023,5.226,6.602
	c1.493,2.588,2.492,5.25,3.089,7.848L54.636,56.438C52.692,54.628,50.898,52.411,49.408,49.833z M70.958,60.481
	c-3.416,1.973-7.767,1.504-11.925-0.811l17.14-9.899C76.092,54.511,74.363,58.515,70.958,60.481z"/>
<polygon points="30.691,39.064 36.03,40.549 32.809,36.037 34.293,30.703 29.783,33.917 24.447,32.437 27.666,36.945 26.184,42.285 
	"/>
<rect x="36.677" y="33.277" transform="matrix(0.8191 0.5737 -0.5737 0.8191 27.0607 -15.7143)" width="3.534" height="3.537"/>
<rect x="20.264" y="36.172" transform="matrix(0.8193 0.5734 -0.5734 0.8193 25.7378 -5.7763)" width="3.535" height="3.536"/>
</svg>
