<?xml version="1.0" encoding="utf-8"?>
<!-- Generator: Adobe Illustrator 16.0.0, SVG Export Plug-In . SVG Version: 6.00 Build 0)  -->
<!DOCTYPE svg PUBLIC "-//W3C//DTD SVG 1.0//EN" "http://www.w3.org/TR/2001/REC-SVG-20010904/DTD/svg10.dtd">
<svg version="1.0" id="Layer_1" xmlns="http://www.w3.org/2000/svg" xmlns:xlink="http://www.w3.org/1999/xlink" x="0px" y="0px"
	 width="100px" height="100px" viewBox="0 0 100 100" enable-background="new 0 0 100 100" xml:space="preserve">
<polygon points="74.512,62.728 76.868,65.085 74.512,69.798 69.795,74.512 65.081,76.868 62.725,74.512 "/>
<ellipse transform="matrix(0.7071 -0.7071 0.7071 0.7071 -25.4954 61.5472)" cx="61.546" cy="61.549" rx="6.666" ry="4.999"/>
<path d="M85.117,52.122c-3.259-3.259-7.52-4.886-11.787-4.88c0,0-1.094,0-2.438,0c-1.344,0-3.502-1.061-4.798-2.355l-3.369-3.369
	c-5.046-5.049-12.776-5.721-18.57-2.078L25.85,21.137l-2.945-6.482l-2.947-2.945c-2.277-2.279-5.969-2.279-8.248,0
	s-2.279,5.971,0,8.248l2.945,2.947l6.482,2.949l18.301,18.301c-3.646,5.797-2.975,13.528,2.072,18.573l3.369,3.366
	c1.297,1.296,2.357,3.457,2.357,4.798c0.004,1.348,0,2.441,0,2.441c-0.006,4.265,1.624,8.529,4.883,11.784
	c6.507,6.511,17.061,6.511,23.571,0l9.427-9.427C91.628,69.18,91.628,58.626,85.117,52.122z M80.403,70.977l-9.43,9.427
	c-3.896,3.9-10.241,3.9-14.141,0c-1.895-1.895-2.93-4.4-2.93-7.063l0.003-2.454c-0.003-3.588-2.168-7.363-4.31-9.506l-3.372-3.365
	c-2.411-2.409-3.023-5.941-1.857-8.929l5.392,5.39l4.717-4.713l-5.394-5.392c2.991-1.164,6.521-0.553,8.929,1.859L61.38,49.6
	c2.146,2.146,5.918,4.307,9.512,4.307h2.438c2.673,0,5.179,1.035,7.073,2.93C84.304,60.735,84.304,67.077,80.403,70.977z"/>
<path d="M16.666,65v15.306C16.143,80.12,15.588,80,15,80c-2.76,0-5,2.236-5,5s2.24,5,5,5s5-2.236,5-5V74.531l10-1.999v4.44
	c-0.523-0.186-1.079-0.306-1.666-0.306c-2.762,0-5,2.236-5,5s2.238,5,5,5c2.76,0,5-2.236,5-5v-20L16.666,65z M20,71.133v-3.398
	l10-2.002v3.398L20,71.133z"/>
<polygon points="75.149,21.666 78.333,15 71.667,18.184 65,15 68.184,21.666 65,28.334 71.667,25.15 78.333,28.334 "/>
<polygon points="17.612,50 20,45 15,47.389 10,45 12.388,50 10,55 15,52.614 20,55 "/>
<path d="M51.667,14.166c0,2.303-1.862,4.168-4.167,4.168c-2.295,0-4.166-1.865-4.166-4.168c0-2.297,1.871-4.166,4.166-4.166
	C49.805,10,51.667,11.869,51.667,14.166z"/>
<path d="M90,34.166c0,2.303-1.862,4.168-4.167,4.168c-2.295,0-4.166-1.865-4.166-4.168c0-2.297,1.871-4.166,4.166-4.166
	C88.138,30,90,31.869,90,34.166z"/>
<path d="M23.334,35.834c0,1.377-1.123,2.5-2.5,2.5s-2.5-1.127-2.5-2.5c0-1.377,1.123-2.5,2.5-2.5S23.334,34.457,23.334,35.834z"/>
<path d="M33.334,54.167c0,1.373-1.123,2.5-2.5,2.5s-2.5-1.127-2.5-2.5c0-1.381,1.123-2.5,2.5-2.5S33.334,52.786,33.334,54.167z"/>
<path d="M38.334,20.834c0,1.373-1.123,2.5-2.5,2.5s-2.5-1.127-2.5-2.5c0-1.381,1.123-2.5,2.5-2.5S38.334,19.453,38.334,20.834z"/>
<path d="M58.333,27.5c0,1.373-1.123,2.5-2.5,2.5s-2.5-1.127-2.5-2.5c0-1.381,1.123-2.5,2.5-2.5S58.333,26.119,58.333,27.5z"/>
<path d="M75,39.166c0,1.375-1.123,2.5-2.5,2.5s-2.5-1.125-2.5-2.5c0-1.379,1.123-2.5,2.5-2.5S75,37.787,75,39.166z"/>
<path d="M90,12.5c0,1.373-1.123,2.5-2.5,2.5S85,13.873,85,12.5c0-1.381,1.123-2.5,2.5-2.5S90,11.119,90,12.5z"/>
</svg>
