<?xml version="1.0" encoding="utf-8"?>
<!-- Generator: Adobe Illustrator 16.0.0, SVG Export Plug-In . SVG Version: 6.00 Build 0)  -->
<!DOCTYPE svg PUBLIC "-//W3C//DTD SVG 1.0//EN" "http://www.w3.org/TR/2001/REC-SVG-20010904/DTD/svg10.dtd">
<svg version="1.0" id="Layer_1" xmlns="http://www.w3.org/2000/svg" xmlns:xlink="http://www.w3.org/1999/xlink" x="0px" y="0px"
	 width="100px" height="100px" viewBox="0 0 100 100" enable-background="new 0 0 100 100" xml:space="preserve">
<path d="M48.535,58.249C46.179,55.97,45,52.988,45,50V38.334c0-2.752-2.249-5-5-5h-7.5v-2.791c2.905-1.035,5-3.781,5-7.041
	c0-5.273-2.868-10.045-7.5-13.502c0,2.441-1.25,4.889-3.75,6.752c-2.5,1.861-3.75,4.307-3.75,6.75c0,3.26,2.093,6.006,5,7.041v2.791
	H20c-2.751,0-5,2.248-5,5v1.682c-0.005,2.982-1.182,5.961-3.535,8.236C10.56,49.121,10,50.329,10,51.667c0,2.76,2.239,5,5,5V90
	h6.667V40H25v14.167c0,1.38,1.12,2.5,2.5,2.5s2.5-1.12,2.5-2.5V47.5c0,1.381,1.12,2.5,2.5,2.5s2.5-1.119,2.5-2.5V40h3.333v50H45
	V66.667c2.761,0,5-2.24,5-5C50,60.329,49.44,59.121,48.535,58.249z"/>
<path d="M88.535,81.582C86.179,79.304,85,76.321,85,73.333V51.667c0-2.751-2.253-5.001-5-5.001h-7.5v-2.789
	c2.903-1.035,5-3.783,5-7.041c0-5.273-2.871-10.045-7.5-13.502c0,2.441-1.25,4.889-3.75,6.75c-2.5,1.863-3.75,4.307-3.75,6.752
	c0,3.258,2.09,6.006,5,7.041v2.789H60c-2.754,0-5,2.25-5,5.001V60c0,2.988-1.179,5.97-3.535,8.249C50.56,69.121,50,70.329,50,71.667
	c0,2.76,2.239,5,5,5V90h6.667V53.333H70v7.5c0,1.381,1.12,2.5,2.5,2.5s2.5-1.119,2.5-2.5v-7.5h3.333V90H85c2.761,0,5-2.239,5-5
	C90,83.662,89.44,82.454,88.535,81.582z"/>
<path d="M67.5,68.333c-1.38,0-2.5,1.12-2.5,2.5v8.334c0,1.38,1.12,2.5,2.5,2.5s2.5-1.12,2.5-2.5v-8.334
	C70,69.453,68.88,68.333,67.5,68.333z"/>
<path d="M32.5,63.333c-1.38,0-2.5,1.12-2.5,2.5v5c0,1.381,1.12,2.5,2.5,2.5s2.5-1.119,2.5-2.5v-5
	C35,64.453,33.88,63.333,32.5,63.333z"/>
</svg>
