<?xml version="1.0" encoding="utf-8"?>
<!-- Generator: Adobe Illustrator 16.0.0, SVG Export Plug-In . SVG Version: 6.00 Build 0)  -->
<!DOCTYPE svg PUBLIC "-//W3C//DTD SVG 1.0//EN" "http://www.w3.org/TR/2001/REC-SVG-20010904/DTD/svg10.dtd">
<svg version="1.0" id="Layer_1" xmlns="http://www.w3.org/2000/svg" xmlns:xlink="http://www.w3.org/1999/xlink" x="0px" y="0px"
	 width="100px" height="100px" viewBox="0 0 100 100" enable-background="new 0 0 100 100" xml:space="preserve">
<path d="M66.038,34.375C64.079,20.322,57.644,10,50,10c-7.65,0-14.086,10.332-16.041,24.395C25.904,35.446,17.869,37.285,10,40
	c0,7.363,5.971,13.334,13.334,13.334h1.119c-0.719,2.115-1.119,4.35-1.119,6.67c0,7.543,4.109,14.232,10.457,18.496l2.066,8.268
	C36.303,88.545,38.168,90,40,90h20c1.833,0,3.698-1.455,4.141-3.232l2.067-8.268c6.351-4.264,10.459-10.953,10.459-18.496
	c0-2.32-0.397-4.555-1.12-6.67h1.12C84.03,53.334,90,47.363,90,40C82.334,37.344,74.287,35.453,66.038,34.375z M50,16.667
	c2.773,0,7.363,6.292,9.199,17.031c-6.074-0.452-12.227-0.476-18.394-0.02C42.642,22.953,47.227,16.667,50,16.667z M62.49,72.967
	l-2.129,1.428l-2.233,8.939H41.871l-2.234-8.939l-2.129-1.428C32.736,69.76,30,65.037,30,60.004c0-2.373,0.607-4.625,1.684-6.67
	h36.634C69.395,55.379,70,57.631,70,60.004C70,65.037,67.263,69.76,62.49,72.967z M76.667,46.667H23.334
	c-2.006,0-3.807-0.889-5.027-2.292C28.555,41.472,39.184,40,49.993,40c10.847,0,21.484,1.469,31.699,4.372
	C80.469,45.775,78.672,46.667,76.667,46.667z"/>
<path d="M47.24,60.799c-0.957-2.303-4.232-3.143-7.301-1.869c-3.076,1.27-4.798,4.18-3.842,6.48
	c0.953,2.309,4.223,3.148,7.297,1.875C46.465,66.014,48.189,63.104,47.24,60.799z"/>
<path d="M52.761,60.799c0.957-2.303,4.231-3.143,7.298-1.869c3.076,1.27,4.798,4.18,3.841,6.48c-0.95,2.309-4.222,3.148-7.298,1.875
	C53.532,66.014,51.81,63.104,52.761,60.799z"/>
<polygon points="50,68.334 45.834,75 54.167,75 "/>
</svg>
