<?xml version="1.0" encoding="utf-8"?>
<!-- Generator: Adobe Illustrator 16.0.0, SVG Export Plug-In . SVG Version: 6.00 Build 0)  -->
<!DOCTYPE svg PUBLIC "-//W3C//DTD SVG 1.0//EN" "http://www.w3.org/TR/2001/REC-SVG-20010904/DTD/svg10.dtd">
<svg version="1.0" id="Layer_1" xmlns="http://www.w3.org/2000/svg" xmlns:xlink="http://www.w3.org/1999/xlink" x="0px" y="0px"
	 width="100px" height="100px" viewBox="0 0 100 100" enable-background="new 0 0 100 100" xml:space="preserve">
<path d="M64.46,46.666h-6.674c0.43,4.291,2.221,8.275,5.303,11.349c2.309,2.298,3.578,5.371,3.578,8.648
	c0,9.193-7.478,16.67-16.667,16.67c-9.189-0.003-16.667-7.48-16.667-16.67c0-3.271,1.273-6.344,3.588-8.652
	c3.086-3.079,4.876-7.066,5.306-11.345h-6.673c-0.41,2.566-1.589,4.874-3.347,6.628c-3.425,3.418-5.54,8.145-5.54,13.369
	C26.667,79.554,37.112,89.997,50,90c12.894,0,23.333-10.446,23.333-23.337c0-5.221-2.109-9.954-5.54-13.369
	C66.035,51.54,64.863,49.232,64.46,46.666z"/>
<path d="M50,55c-5.521,0-10,5.225-10,11.667c0,6.441,4.479,11.666,10,11.666c5.527,0,10-5.225,10-11.666C60,60.225,55.527,55,50,55z
	 M50,73.333c-2.708,0-5-3.053-5-6.666S47.292,60,50,60s5,3.054,5,6.667S52.708,73.333,50,73.333z"/>
<path d="M61.523,27.012C60.677,17.387,55.847,10,50,10c-5.85,0-10.684,7.396-11.523,17.031C30.032,27.5,21.582,28.443,13.333,30
	c0,3.682,2.988,6.666,6.667,6.666h2.337l-1.002,5h4l-0.999-5h4.668l-1.003,5h4.001l-0.999-5h4.668l-1.003,5h4.001l-1-5h4.668
	l-1.002,5h4l-0.999-5h4.668l-1.003,5h4.001l-0.999-5h4.668l-1.003,5h3.997l-0.996-5h4.668l-1.002,5h3.997l-0.996-5h4.668l-1.003,5
	h3.998l-0.996-5h4.668l-1.003,5h3.997l-0.996-5H80c3.685,0,6.667-2.984,6.667-6.666C78.659,28.486,70.192,27.494,61.523,27.012z
	 M45.195,26.771c0.771-6.543,3.728-10.105,4.805-10.105c1.081,0,4.033,3.563,4.805,10.105
	C51.614,26.699,48.411,26.699,45.195,26.771z"/>
</svg>
