<?xml version="1.0" encoding="utf-8"?>
<!-- Generator: Adobe Illustrator 16.0.0, SVG Export Plug-In . SVG Version: 6.00 Build 0)  -->
<!DOCTYPE svg PUBLIC "-//W3C//DTD SVG 1.0//EN" "http://www.w3.org/TR/2001/REC-SVG-20010904/DTD/svg10.dtd">
<svg version="1.0" id="Layer_1" xmlns="http://www.w3.org/2000/svg" xmlns:xlink="http://www.w3.org/1999/xlink" x="0px" y="0px"
	 width="100px" height="100px" viewBox="0 0 100 100" enable-background="new 0 0 100 100" xml:space="preserve">
<path d="M28.405,37.819l6.556,5.146l-14.492,3.884c-2.161,0.579-4,3.229-3.784,5.456l0.129,1.334l6.329,13.197l12.164-3.26
	l6.556,5.146l-4.831,1.293l4.313,16.1l-4.831,1.297l-7.532-15.238l-1.61,0.434l4.313,16.096L26.855,90L16.589,68.59l1.385,14.287
	l-4.976,0.482l-2.949-30.41c-0.53-5.472,3.383-11.117,8.695-12.542L28.405,37.819z"/>
<path d="M88.435,26.097L71.667,20L70,10h-3.333l-7.855,23.688C57.63,37.162,53.665,40,50,40h-6.666l5,6.666l-5,6.666l5,6.668
	l-5,6.666l5,6.666H55V90h5l3.333-16.668H65V90h5l6.667-36.668l-2.025-10.128c-0.719-3.594,1.635-7.123,5.229-7.846l8.496-1.699
	C89.265,33.48,90,32.584,90,31.667v-3.333C90,27.416,89.294,26.413,88.435,26.097z M67.468,66.666H51.667l5-6.666l-5-6.668
	l7.145-9.527c2.891-1.937,5.209-4.732,6.313-7.969l0.143-0.426l3.711,1.348c-1.021,2.369-1.419,5.032-0.872,7.754l1.774,8.878
	L67.468,66.666z M71.667,28.333c-0.918,0-1.667-0.745-1.667-1.667C70,25.746,70.749,25,71.667,25s1.666,0.745,1.666,1.666
	C73.333,27.588,72.585,28.333,71.667,28.333z"/>
<path d="M53.193,10.511L27.673,24.828L13.578,31.4c-0.832-0.7-1.738-1.028-2.469-0.687c-1.249,0.582-1.48,2.747-0.507,4.834
	c0.974,2.083,2.78,3.301,4.026,2.721c0.732-0.345,1.064-1.25,1.063-2.337l14.094-6.572l27.37-10.349
	c2.142-0.807,3.105-3.17,2.139-5.247l-0.707-1.511C57.62,10.172,55.192,9.391,53.193,10.511z"/>
<path d="M48.334,77.502c0,1.377-1.12,2.498-2.5,2.498c-1.381,0-2.5-1.121-2.5-2.498c0-1.383,1.119-2.502,2.5-2.502
	C47.214,75,48.334,76.119,48.334,77.502z"/>
<path d="M38.334,34.17c0,1.377-1.12,2.496-2.5,2.496c-1.381,0-2.5-1.119-2.5-2.496c0-1.384,1.119-2.504,2.5-2.504
	C37.214,31.667,38.334,32.787,38.334,34.17z"/>
<path d="M30,17.503C30,18.88,28.881,20,27.5,20c-1.38,0-2.5-1.12-2.5-2.497C25,16.12,26.12,15,27.5,15C28.881,15,30,16.12,30,17.503
	z"/>
<path d="M90,60.836c0,1.377-1.12,2.496-2.5,2.496S85,62.213,85,60.836c0-1.383,1.12-2.504,2.5-2.504S90,59.453,90,60.836z"/>
<path d="M50,31.67c0,1.836-1.494,3.33-3.333,3.33s-3.333-1.494-3.333-3.33c0-1.843,1.494-3.337,3.333-3.337S50,29.828,50,31.67z"/>
<path d="M83.333,86.67c0,1.836-1.494,3.33-3.333,3.33s-3.333-1.494-3.333-3.33c0-1.844,1.494-3.338,3.333-3.338
	S83.333,84.826,83.333,86.67z"/>
<path d="M51.667,83.336C51.667,84.254,50.921,85,50,85c-0.918,0-1.666-0.746-1.666-1.664c0-0.924,0.748-1.67,1.666-1.67
	C50.921,81.666,51.667,82.412,51.667,83.336z"/>
<path d="M83.333,53.336c0,0.918-0.745,1.664-1.666,1.664C80.749,55,80,54.254,80,53.336c0-0.924,0.749-1.67,1.667-1.67
	C82.588,51.666,83.333,52.412,83.333,53.336z"/>
<path d="M48.334,88.336c0,0.918-0.746,1.664-1.667,1.664C45.749,90,45,89.254,45,88.336c0-0.924,0.749-1.67,1.667-1.67
	C47.588,86.666,48.334,87.412,48.334,88.336z"/>
<polygon points="17.612,15 20,10 15,12.389 10,10 12.389,15 10,20 15,17.614 20,20 "/>
<polygon points="87.61,73.332 90,68.332 85,70.723 80,68.332 82.39,73.332 80,78.332 85,75.943 90,78.332 "/>
</svg>
