<?xml version="1.0" encoding="utf-8"?>
<!-- Generator: Adobe Illustrator 16.0.0, SVG Export Plug-In . SVG Version: 6.00 Build 0)  -->
<!DOCTYPE svg PUBLIC "-//W3C//DTD SVG 1.0//EN" "http://www.w3.org/TR/2001/REC-SVG-20010904/DTD/svg10.dtd">
<svg version="1.0" id="Layer_1" xmlns="http://www.w3.org/2000/svg" xmlns:xlink="http://www.w3.org/1999/xlink" x="0px" y="0px"
	 width="100px" height="100px" viewBox="0 0 100 100" enable-background="new 0 0 100 100" xml:space="preserve">
<path d="M56.667,38.333c10.267,0,19.586,4.082,26.478,10.682c2.178-3.328,3.464-7.289,3.464-11.566l-0.007-4.721
	c-0.032-3.047,1.101-6.086,3.398-8.389c-2.819,0-5.635,0.527-8.301,1.57v-7.518c-0.036-3.049,1.097-6.084,3.396-8.389
	c-4.291-0.078-8.562,1.492-11.791,4.715c-1.705,1.709-2.783,4.045-2.813,6.617l-0.032,2.328c-0.049,3.85-1.663,7.359-4.226,9.922
	c-0.973,0.977-2.559,0.977-3.528,0c-0.979-0.977-0.979-2.563,0-3.539c2.298-2.301,3.479-5.287,3.525-8.256
	c-1.702,1.709-4.04,2.787-6.608,2.82l-2.33,0.029c-3.854,0.051-7.36,1.662-9.923,4.225c-2.563,2.631-3.859,6.031-3.986,9.469H56.667
	z"/>
<path d="M56.667,43.333H43.334C24.926,43.333,10,58.252,10,76.666V80c0,5.523,4.477,10,10,10h60c5.521,0,10-4.477,10-10v-3.334
	C90,58.254,75.078,43.333,56.667,43.333z M23.334,80c0,1.842-1.493,3.332-3.334,3.332s-3.334-1.49-3.334-3.332v-3.334
	c0-11.832,7.711-21.846,18.371-25.336c-7.152,6.113-11.703,15.186-11.703,25.336V80z M83.333,80c0,1.842-1.49,3.332-3.333,3.332
	H29.389C29.761,82.285,30,81.174,30,80v-3.334C30,61.934,41.938,50,56.667,50c14.732,0,26.666,11.933,26.666,26.666V80z"/>
<circle cx="75.833" cy="75.832" r="2.5"/>
<circle cx="65.833" cy="75.832" r="2.5"/>
<circle cx="70.833" cy="69.166" r="2.5"/>
<circle cx="44.166" cy="75.832" r="2.5"/>
<circle cx="39.166" cy="69.166" r="2.5"/>
<circle cx="52.5" cy="64.166" r="2.5"/>
<circle cx="57.5" cy="57.5" r="2.5"/>
</svg>
