<?xml version="1.0" encoding="utf-8"?>
<!-- Generator: Adobe Illustrator 16.0.0, SVG Export Plug-In . SVG Version: 6.00 Build 0)  -->
<!DOCTYPE svg PUBLIC "-//W3C//DTD SVG 1.0//EN" "http://www.w3.org/TR/2001/REC-SVG-20010904/DTD/svg10.dtd">
<svg version="1.0" id="Layer_1" xmlns="http://www.w3.org/2000/svg" xmlns:xlink="http://www.w3.org/1999/xlink" x="0px" y="0px"
	 width="100px" height="100px" viewBox="0 0 100 100" enable-background="new 0 0 100 100" xml:space="preserve">
<path d="M79.166,20v-1.667C79.166,16.491,80.66,15,82.5,15H85l-2.5-5c-4.604,0-8.334,3.73-8.334,8.333V20
	c-5.98,0-10.834,4.476-10.834,10v6.667c0,19.544-13.359,37.223-34.999,50L30,90c33.134,0,60-23.88,60-53.333V30
	C90,24.476,85.146,20,79.166,20z M74.166,26.667h5c2.26,0,4.166,1.526,4.166,3.333v1.667H70V30
	C70,28.193,71.906,26.667,74.166,26.667z M48.106,80.566C62.35,67.845,70,52.702,70,36.667h13.332
	C83.332,56.839,68.625,74.063,48.106,80.566z"/>
<path d="M56.955,46.738c0.654-2.409,1.082-4.851,1.26-7.317c-0.904-1.225-1.855-2.409-2.881-3.516l-8.97-8.972
	c-2.838-2.835-4.254-6.55-4.251-10.267c-4.727,4.563-4.727,11.966,0,16.529c2.917,3.018,4.72,7.188,4.72,11.811
	c0,3.125-2.539,5.664-5.667,5.664s-5.667-2.539-5.667-5.664v-5.671c0-7.825-5.078-14.17-11.332-14.17
	c1.748,1.452,2.832,3.454,2.832,5.667c0,3.129-2.539,5.664-5.667,5.664c-3.135,0-5.664-3.802-5.664-8.496
	c0-4.424,1.077-8.434,2.829-11.334c-11.328,10.95-11.328,28.717,0,39.668l8.502,8.502c2.217,2.214,2.217,5.805,0,8.015
	c-2.21,2.214-5.801,2.21-8.011,0c-3.972-3.968-6.96-8.555-8.978-13.438C10.043,69.854,12.09,80.257,16.029,90h5.408
	c-1.704-3.913-3.097-7.969-4.132-12.126c1.686,1.064,3.643,1.635,5.687,1.638h0.003c2.849,0,5.527-1.11,7.536-3.122
	c2.019-2.012,3.128-4.69,3.132-7.539c0-2.854-1.11-5.533-3.129-7.549l-8.561-8.561c-3.864-3.737-6.237-8.516-6.826-13.676
	c1.731,1.54,3.86,2.432,6.185,2.432c3.708,0,6.982-1.9,8.894-4.778c0.179,0.833,0.273,1.712,0.273,2.617v5.671
	c0,5.879,4.785,10.667,10.667,10.667s10.667-4.788,10.667-10.667c0-2.233-0.326-4.418-0.961-6.498l0.799,0.801
	C53.752,41.556,55.498,44.063,56.955,46.738z"/>
</svg>
