<?xml version="1.0" encoding="utf-8"?>
<!-- Generator: Adobe Illustrator 16.0.0, SVG Export Plug-In . SVG Version: 6.00 Build 0)  -->
<!DOCTYPE svg PUBLIC "-//W3C//DTD SVG 1.0//EN" "http://www.w3.org/TR/2001/REC-SVG-20010904/DTD/svg10.dtd">
<svg version="1.0" id="Layer_1" xmlns="http://www.w3.org/2000/svg" xmlns:xlink="http://www.w3.org/1999/xlink" x="0px" y="0px"
	 width="100px" height="100px" viewBox="0 0 100 100" enable-background="new 0 0 100 100" xml:space="preserve">
<path d="M83.284,41.094C84.339,39.915,85,38.375,85,36.667C85,32.981,82.015,30,78.333,30c-2.288,0-4.303,1.154-5.504,2.91
	c-1.592-0.752-3.252-1.371-4.978-1.836l3.815-1.582l-2.553-6.16l-12.686,5.254l1.647-3.977c0.71-1.707-0.107-3.652-1.807-4.355
	c-1.696-0.703-3.646,0.1-4.349,1.803l-3.203,7.729c-1.917-3.813-5.823-6.453-10.384-6.453c-5.777,0-10.537,4.207-11.471,9.717
	C16.885,37.92,10,48.147,10,60v6.666C10,74.033,15.969,80,23.334,80h53.333C84.03,80,90,74.033,90,66.666V60
	C90,52.832,87.48,46.256,83.284,41.094z M30.912,52.863l-4.531-4.531l-4.715,4.714l6.875,6.877l-4.815,1.996
	c-1.702,0.703-2.507,2.656-1.804,4.355s2.653,2.506,4.355,1.803L30,66.535v0.131c0,3.686-2.984,6.666-6.666,6.666
	s-6.668-2.98-6.668-6.666V60c0-8.445,4.496-15.82,11.211-19.916c1.22,2.5,3.271,4.516,5.836,5.621
	C32.49,47.94,31.549,50.342,30.912,52.863z M33.334,35c0-2.758,2.242-5,5-5c2.756,0,5,2.242,5,5c0,0.049-0.014,0.09-0.014,0.137
	c-2.047,1.373-3.916,2.984-5.563,4.805C35.273,39.651,33.334,37.561,33.334,35z M83.333,66.666c0,3.686-2.984,6.666-6.666,6.666
	H34.818c1.145-1.965,1.848-4.225,1.848-6.666V60c0-12.89,10.449-23.333,23.334-23.333c12.891,0,23.333,10.443,23.333,23.333V66.666z
	"/>
<rect x="48.334" y="50" width="23.333" height="5"/>
<rect x="43.334" y="60" width="33.333" height="5"/>
</svg>
