<?xml version="1.0" encoding="utf-8"?>
<!-- Generator: Adobe Illustrator 16.0.0, SVG Export Plug-In . SVG Version: 6.00 Build 0)  -->
<!DOCTYPE svg PUBLIC "-//W3C//DTD SVG 1.0//EN" "http://www.w3.org/TR/2001/REC-SVG-20010904/DTD/svg10.dtd">
<svg version="1.0" id="Layer_1" xmlns="http://www.w3.org/2000/svg" xmlns:xlink="http://www.w3.org/1999/xlink" x="0px" y="0px"
	 width="100px" height="100px" viewBox="0 0 100 100" enable-background="new 0 0 100 100" xml:space="preserve">
<path d="M46.094,45.234L37.93,37.07C36.12,35.264,35,32.764,35,30v-5h3.333v-3.333L35,20l3.333-6.667V10H21.667l0.002,3.333L25,20
	l-3.333,1.667V25H25v5c0,2.764-1.118,5.264-2.93,7.07l-8.164,8.164C11.491,47.646,10,50.979,10,54.665v28.668
	C10,87.015,12.985,90,16.667,90h26.667C47.015,90,50,87.015,50,83.333V54.665C50,50.979,48.509,47.646,46.094,45.234z
	 M43.333,83.333H16.667V54.665c0-1.784,0.693-3.457,1.95-4.714l8.167-8.167c1.335-1.328,2.416-2.849,3.216-4.496
	c0.804,1.647,1.885,3.168,3.219,4.502l8.161,8.158c1.26,1.26,1.953,2.933,1.953,4.717V83.333z"/>
<ellipse cx="30" cy="51.667" rx="5" ry="3.333"/>
<polygon points="30,60 20,68.333 30,76.667 40,68.333 "/>
<path d="M56.667,56.667V60l6.666,30h20L90,60v-3.333H56.667z M77.985,83.333h-9.304l-4.443-20h18.19L77.985,83.333z"/>
<path d="M84.932,51.67c2.757-4.854,2.233-11.331-1.595-15.557c0,2.923-1.885,5.4-4.502,6.302c0.742-1.578,1.172-3.333,1.172-5.191
	c0-6.751-5.476-12.22-12.227-12.22c3.736,3.733,4.219,9.492,1.455,13.753c-0.479-2.744-1.787-5.199-3.679-7.087
	c0,2.171-0.716,4.134-1.872,5.554l-1.81,2.223C60.716,40.866,60,42.832,60,45.003c0,2.318,0.647,4.633,1.924,6.667H84.932z"/>
</svg>
