<?xml version="1.0" encoding="utf-8"?>
<!-- Generator: Adobe Illustrator 16.0.0, SVG Export Plug-In . SVG Version: 6.00 Build 0)  -->
<!DOCTYPE svg PUBLIC "-//W3C//DTD SVG 1.0//EN" "http://www.w3.org/TR/2001/REC-SVG-20010904/DTD/svg10.dtd">
<svg version="1.0" id="Layer_1" xmlns="http://www.w3.org/2000/svg" xmlns:xlink="http://www.w3.org/1999/xlink" x="0px" y="0px"
	 width="100px" height="100px" viewBox="0 0 100 100" enable-background="new 0 0 100 100" xml:space="preserve">
<path d="M90,43.333C90,24.925,72.096,10,50,10c-22.09,0-40,14.925-40,33.333c0,11.01,6.432,20.742,16.303,26.811L23.333,85
	c14.728,6.667,38.61,6.667,53.333,0l-2.973-14.854C83.57,64.075,90,54.343,90,43.333z M70.205,64.466l-3.959,2.436l2.77,13.841
	c-2.021,0.612-4.234,1.084-6.516,1.487V75h-5v7.917c-1.641,0.166-3.309,0.276-5,0.332V75h-5v8.249c-1.693-0.056-3.358-0.166-5-0.332
	V75h-5v7.229c-2.282-0.403-4.496-0.875-6.518-1.487l2.769-13.848l-3.956-2.432c-8.344-5.127-13.129-12.829-13.129-21.13
	C16.667,28.63,31.62,16.667,50,16.667c18.378,0,33.332,11.963,33.332,26.666C83.332,51.638,78.547,59.339,70.205,64.466z"/>
<path d="M76.666,46.667l-3.051-2.312L75.1,40.83l-3.791-0.469l-0.473-3.799l-3.525,1.484L65,35l-2.309,3.047l-3.525-1.484
	l-0.473,3.796l-3.795,0.472l1.484,3.522l-3.051,2.314l3.051,2.311l-1.484,3.525l3.793,0.469l0.471,3.796l3.525-1.484L65,58.333
	l2.307-3.05l3.525,1.484l0.473-3.792l3.795-0.473l-1.484-3.525L76.666,46.667z M65,50c-1.84,0-3.334-1.491-3.334-3.333
	c0-1.84,1.494-3.334,3.334-3.334c1.838,0,3.332,1.494,3.332,3.334C68.332,48.509,66.838,50,65,50z"/>
<path d="M46.667,46.667l-3.05-2.312l1.484-3.525l-3.792-0.469l-0.473-3.799l-3.525,1.484L35,35l-2.309,3.047l-3.525-1.484
	l-0.472,3.796l-3.796,0.472l1.484,3.522l-3.05,2.314l3.05,2.311l-1.484,3.525l3.793,0.469l0.472,3.796l3.525-1.484L35,58.333
	l2.308-3.05l3.525,1.484l0.472-3.792l3.796-0.473l-1.484-3.525L46.667,46.667z M35,50c-1.84,0-3.334-1.491-3.334-3.333
	c0-1.84,1.494-3.334,3.334-3.334c1.839,0,3.333,1.494,3.333,3.334C38.333,48.509,36.839,50,35,50z"/>
<polygon points="50,53.333 44.167,63.333 55.832,63.333 "/>
<circle cx="49.999" cy="68.75" r="2.083"/>
<circle cx="49.999" cy="39.583" r="2.083"/>
<circle cx="49.999" cy="31.25" r="2.083"/>
<circle cx="75.416" cy="35" r="2.084"/>
<circle cx="24.583" cy="35" r="2.083"/>
<circle cx="49.999" cy="22.917" r="2.083"/>
<circle cx="41.667" cy="68.75" r="2.083"/>
<circle cx="58.333" cy="68.75" r="2.083"/>
<polygon points="61.666,30.417 66.666,27.083 61.666,23.75 56.666,27.083 "/>
<polygon points="38.333,30.417 43.333,27.083 38.333,23.75 33.333,27.083 "/>
</svg>
