<?xml version="1.0" encoding="utf-8"?>
<!-- Generator: Adobe Illustrator 16.0.0, SVG Export Plug-In . SVG Version: 6.00 Build 0)  -->
<!DOCTYPE svg PUBLIC "-//W3C//DTD SVG 1.0//EN" "http://www.w3.org/TR/2001/REC-SVG-20010904/DTD/svg10.dtd">
<svg version="1.0" id="Layer_1" xmlns="http://www.w3.org/2000/svg" xmlns:xlink="http://www.w3.org/1999/xlink" x="0px" y="0px"
	 width="100px" height="100px" viewBox="0 0 100 100" enable-background="new 0 0 100 100" xml:space="preserve">
<path d="M76.666,36.667H65.332l-3.373-16.858C60.883,14.415,55.502,10,50,10c-5.5,0-10.882,4.414-11.961,9.809l-4.705,23.525H20
	c-5.523,0-10,4.475-10,9.999c0,5.521,4.477,10,10,10h6.667c5.498,0.007,10.993-2.217,15.187-6.666L48.146,50
	c4.198-4.449,9.696-6.673,15.188-6.666h13.332c3.686,0,6.668,2.984,6.668,6.666c0,3.681-2.982,6.667-6.668,6.667H48.73l-3.24,3.431
	c-1.141,1.211-2.377,2.278-3.677,3.235h34.853C84.033,63.333,90,57.363,90,50C90,42.641,84.033,36.667,76.666,36.667z
	 M44.575,21.118c0.458-2.289,3.095-4.45,5.425-4.45c2.331,0,4.965,2.161,5.424,4.45l1.109,5.55H43.464L44.575,21.118z
	 M37.001,52.097c-2.779,2.945-6.469,4.57-10.335,4.57H20c-1.84,0-3.333-1.494-3.333-3.334C16.667,51.494,18.16,50,20,50h18.98
	L37.001,52.097z M45.496,43.334h-5.363l2.332-11.667h15.069l1.086,5.417C53.799,37.93,49.296,40.066,45.496,43.334z"/>
<path d="M46.471,76.673l-10.366,0.608c-1.587-4.192-6.672-7.285-12.771-7.281C15.966,70,10,74.476,10,79.996
	c0,5.524,5.971,10.003,13.334,10.003c6.1,0,11.184-3.089,12.77-7.281l10.368,0.608C48.412,83.44,50,81.939,50,80
	C50,78.053,48.412,76.556,46.471,76.673z M23.333,83.333c-4.135,0-6.667-2.161-6.667-3.337c0-1.175,2.532-3.33,6.667-3.33
	C27.467,76.663,29.997,78.821,30,80C29.997,81.175,27.467,83.333,23.333,83.333z"/>
<path d="M89.416,72.627c-2.115-5.104-9.344-6.96-16.145-4.141c-5.635,2.334-9.15,7.135-9.014,11.617l-9.811,3.402
	c-1.836,0.638-2.729,2.633-1.986,4.423c0.742,1.801,2.787,2.575,4.531,1.726l9.342-4.531c3.074,3.265,8.953,4.177,14.59,1.84
	C87.727,84.144,91.529,77.728,89.416,72.627z M78.373,80.804c-3.818,1.585-6.982,0.56-7.436-0.527
	c-0.445-1.087,1.064-4.05,4.883-5.632c3.822-1.582,6.986-0.553,7.438,0.531C83.707,76.263,82.191,79.222,78.373,80.804z"/>
</svg>
